<?xml version="1.0" standalone="no"?>
<!DOCTYPE svg PUBLIC "-//W3C//DTD SVG 1.1//EN" "http://www.w3.org/Graphics/SVG/1.1/DTD/svg11.dtd">
<svg width="100%" height="100%" viewBox="0 0 1013 540" version="1.1" xmlns="http://www.w3.org/2000/svg" xmlns:xlink="http://www.w3.org/1999/xlink" xml:space="preserve" style="fill-rule:evenodd;clip-rule:evenodd;stroke-linecap:round;stroke-linejoin:round;stroke-miterlimit:1.41421;">
    <g transform="matrix(1,0,0,1,-1403,-1317)">
        <g id="Layer1">
            <g transform="matrix(1,0,0,1,-286.185,-347.523)">
                <g>
                    <g>
                        <g transform="matrix(0.699538,0,0,0.699538,1072.39,694.881)">
                            <circle cx="1334.64" cy="2090.83" r="49.123" style="fill:white;stroke-width:1.43px;stroke:white;"/>
                        </g>
                        <g transform="matrix(0.699538,0,0,0.699538,925.017,237.899)">
                            <circle cx="1334.64" cy="2090.83" r="49.123" style="fill:white;stroke-width:1.43px;stroke:white;"/>
                        </g>
                        <g transform="matrix(0.573404,0,0,0.573404,1240.73,701.947)">
                            <circle cx="1334.64" cy="2090.83" r="49.123" style="fill:white;stroke-width:1.74px;stroke:white;"/>
                        </g>
                        <g transform="matrix(0.204617,0,0,0.204617,1605.35,1441.53)">
                            <circle cx="1334.64" cy="2090.83" r="49.123" style="fill:white;stroke-width:4.89px;stroke:white;"/>
                        </g>
                        <g transform="matrix(0.204617,0,0,0.204617,1749.21,1354)">
                            <circle cx="1334.64" cy="2090.83" r="49.123" style="fill:white;stroke-width:4.89px;stroke:white;"/>
                        </g>
                        <g transform="matrix(0.248801,0,0,0.248801,1387,1334.46)">
                            <circle cx="1334.64" cy="2090.83" r="49.123" style="fill:white;stroke-width:4.02px;stroke:white;"/>
                        </g>
                        <g transform="matrix(0.248801,0,0,0.248801,1816.62,1181.35)">
                            <circle cx="1334.64" cy="2090.83" r="49.123" style="fill:white;stroke-width:4.02px;stroke:white;"/>
                        </g>
                        <g transform="matrix(0.248801,0,0,0.248801,1943.74,1337.09)">
                            <circle cx="1334.64" cy="2090.83" r="49.123" style="fill:white;stroke-width:4.02px;stroke:white;"/>
                        </g>
                        <g>
                            <g>
                                <g transform="matrix(1,0,0,1,656.048,-151.754)">
                                    <path d="M1346.84,2309.25L1346.84,2051.27L1200.65,1854.13L1205.67,1850.4L1352.48,2048.38C1352.93,2049.26 1352.93,2049.26 1353.09,2050.24L1353.09,2309.25C1351.01,2309.25 1348.93,2309.25 1346.84,2309.25Z" style="fill:white;fill-rule:nonzero;stroke-width:1px;stroke-linecap:butt;stroke:white;"/>
                                </g>
                                <g transform="matrix(1,0,0,1,656.048,-151.754)">
                                    <path d="M1344.73,2309.82C1279.45,2239.88 1214.16,2169.94 1148.88,2100L1063.01,2008.01L1067.58,2003.75C1108.7,2047.8 1149.83,2091.86 1190.95,2135.91L1349.3,2305.56C1347.78,2306.98 1346.26,2308.4 1344.73,2309.82Z" style="fill:white;fill-rule:nonzero;stroke-width:10.42px;stroke-linecap:butt;stroke:white;"/>
                                </g>
                                <g transform="matrix(0.999895,0.0145181,-0.0145181,0.999895,683.097,-171.153)">
                                    <path d="M1210.21,1858.18L1210.13,1851.93L1489.08,1848.42L1489.16,1854.67L1210.21,1858.18Z" style="fill:white;fill-rule:nonzero;stroke-width:10.42px;stroke-linecap:butt;stroke:white;"/>
                                </g>
                                <g transform="matrix(1,0,0,1,656.048,-151.754)">
                                    <path d="M1065.21,2010.87L1060.4,2006.88L1130.27,1922.63L1190.88,1849.55L1195.69,1853.54C1152.2,1905.99 1108.71,1958.43 1065.21,2010.87Z" style="fill:white;fill-rule:nonzero;stroke-width:10.42px;stroke-linecap:butt;stroke:white;"/>
                                </g>
                                <g transform="matrix(1,0,0,1,656.048,-151.754)">
                                    <path d="M1620.71,2012.63L1490.23,1855.3L1495.04,1851.31L1625.52,2008.64C1623.91,2009.97 1622.31,2011.3 1620.71,2012.63Z" style="fill:white;fill-rule:nonzero;stroke-width:10.42px;stroke-linecap:butt;stroke:white;"/>
                                </g>
                                <g transform="matrix(1,0,0,1,656.048,-151.754)">
                                    <path d="M1219.29,2021.46L1200.05,1853.66L1206.26,1852.95L1225.5,2020.75C1223.43,2020.98 1221.36,2021.22 1219.29,2021.46Z" style="fill:white;fill-rule:nonzero;stroke-width:1px;stroke-linecap:butt;stroke:white;"/>
                                </g>
                                <g transform="matrix(1,0,0,1,656.048,-151.754)">
                                    <path d="M1352.96,2053.72L1275.48,2036.26L1221.71,2024.15L1223.08,2018.05L1276.85,2030.16L1354.34,2047.62C1353.88,2049.65 1353.42,2051.68 1352.96,2053.72Z" style="fill:white;fill-rule:nonzero;stroke-width:1px;stroke-linecap:butt;stroke:white;"/>
                                </g>
                                <g transform="matrix(0.999567,0.029415,-0.029415,0.999567,715.814,-184.492)">
                                    <path d="M1222.16,2024.22L1062.57,2012L1063.05,2005.76L1222.63,2017.99C1222.48,2020.06 1222.32,2022.14 1222.16,2024.22Z" style="fill:white;fill-rule:nonzero;stroke-width:1px;stroke-linecap:butt;stroke:white;"/>
                                </g>
                                <g transform="matrix(1,0,0,1,656.048,-151.754)">
                                    <path d="M1350.8,2310.54L1219.55,2022.4L1225.24,2019.81L1356.49,2307.95C1354.6,2308.82 1352.7,2309.68 1350.8,2310.54Z" style="fill:white;fill-rule:nonzero;stroke-width:1px;stroke-linecap:butt;stroke:white;"/>
                                </g>
                                <g transform="matrix(1,0,0,1,570.267,-250.877)">
                                    <path d="M1439.88,2146.59L1439.1,2140.39L1708.51,2106.66L1709.28,2112.86L1439.88,2146.59Z" style="fill:white;fill-rule:nonzero;stroke-width:1px;stroke-linecap:butt;stroke:white;"/>
                                </g>
                                <g transform="matrix(1,0,0,1,570.267,-250.877)">
                                    <path d="M1442.59,2127.02L1436.39,2126.23L1448.61,2030.69L1454.81,2031.49C1450.74,2063.33 1446.66,2095.18 1442.59,2127.02Z" style="fill:white;fill-rule:nonzero;stroke-width:1px;stroke-linecap:butt;stroke:white;"/>
                                </g>
                                <g transform="matrix(1,0,0,1,570.267,-250.877)">
                                    <path d="M1698.69,2112.74L1560.91,2070.07L1444.67,2034.08L1446.52,2028.11L1700.53,2106.77C1699.92,2108.76 1699.3,2110.75 1698.69,2112.74Z" style="fill:white;fill-rule:nonzero;stroke-width:1px;stroke-linecap:butt;stroke:white;"/>
                                </g>
                                <g transform="matrix(1,0,0,1,570.267,-250.877)">
                                    <path d="M1444.2,2033.88L1287.43,1955.22L1290.23,1949.63L1447,2028.3C1446.07,2030.16 1445.13,2032.02 1444.2,2033.88Z" style="fill:white;fill-rule:nonzero;stroke-width:1px;stroke-linecap:butt;stroke:white;"/>
                                </g>
                            </g>
                            <g transform="matrix(1,0,0,1,573.8,-251.754)">
                                <path d="M1453.4,2033.72L1450.02,2028.46L1572.5,1949.8L1575.88,1955.06C1535.05,1981.28 1494.23,2007.5 1453.4,2033.72Z" style="fill:white;fill-rule:nonzero;stroke-width:1px;stroke-linecap:butt;stroke:white;"/>
                            </g>
                        </g>
                        <g transform="matrix(0.696759,0,0,0.73273,1053.42,332.544)">
                            <text x="1460.08px" y="2462.07px" style="font-family:District Pro;font-size:377.229px;font-weight:100;fill:white;stroke-width:4.37px;stroke-linecap:butt;stroke:white;">TRUG</text>
                        </g>
                    </g>
                </g>
            </g>
        </g>
    </g>
</svg>
