<?xml version="1.0" encoding="UTF-8" standalone="no"?>
<!DOCTYPE svg PUBLIC "-//W3C//DTD SVG 1.1//EN" "http://www.w3.org/Graphics/SVG/1.1/DTD/svg11.dtd">
<svg width="100%" height="100%" viewBox="0 0 32 32" version="1.1" xmlns="http://www.w3.org/2000/svg" xmlns:xlink="http://www.w3.org/1999/xlink" xml:space="preserve" style="fill-rule:evenodd;clip-rule:evenodd;stroke-linejoin:round;stroke-miterlimit:1.41421;">
    <path d="M16.003,0C7.17,0 0.008,7.162 0.008,15.997C0.008,23.064 4.59,29.06 10.948,31.176C11.748,31.322 12,30.848 12,30.424C12,30.044 12.008,28.982 12,27.647C7.551,28.614 6.629,25.54 6.629,25.54C5.902,23.692 4.854,23.2 4.854,23.2C3.402,22.208 4.963,22.227 4.963,22.227C6.568,22.34 7.414,23.876 7.414,23.876C8.841,26.319 11.157,25.613 12.068,25.205C12.214,24.171 12.628,23.466 13.085,23.066C9.533,22.662 5.799,21.29 5.799,15.16C5.799,13.413 6.422,11.986 7.445,10.868C7.28,10.464 6.73,8.837 7.602,6.634C7.602,6.634 8.945,6.204 12,8.275C13.276,7.92 14.645,7.743 16.005,7.737C17.364,7.743 18.732,7.92 20.01,8.275C23.065,6.205 24.406,6.634 24.406,6.634C25.278,8.837 24.729,10.464 24.565,10.868C25.588,11.986 26.209,13.413 26.209,15.16C26.209,21.306 22.469,22.658 18.905,23.053C19.479,23.548 20,24.508 20,26C20,28 20,29.902 20,30.428C20,30.856 20.258,31.329 21.07,31.174C27.422,29.055 32,23.062 32,15.997C32,7.162 24.838,0 16.003,0Z" style="fill:white;"/>
</svg>
