<?xml version="1.0" encoding="UTF-8" standalone="no"?>
<!DOCTYPE svg PUBLIC "-//W3C//DTD SVG 1.1//EN" "http://www.w3.org/Graphics/SVG/1.1/DTD/svg11.dtd">
<svg width="100%" height="100%" viewBox="0 0 32 32" version="1.1" xmlns="http://www.w3.org/2000/svg" xmlns:xlink="http://www.w3.org/1999/xlink" xml:space="preserve" style="fill-rule:evenodd;clip-rule:evenodd;stroke-linejoin:round;stroke-miterlimit:1.41421;">
    <g id="Style_2_copy_3">
        <g>
            <path d="M16,0C7.163,0 0,7.163 0,16C0,24.836 7.163,32 16,32C24.837,32 32,24.836 32,16C32,7.163 24.837,0 16,0ZM12.202,23.565C7.955,23.565 4.5,20.172 4.5,16.001C4.5,11.83 7.955,8.436 12.202,8.436C14.059,8.436 15.854,9.095 17.254,10.291L15.295,12.502C14.438,11.77 13.339,11.366 12.201,11.366C9.599,11.366 7.482,13.445 7.482,16C7.482,18.555 9.599,20.634 12.201,20.634C14.402,20.634 15.843,19.579 16.311,17.687L12.237,17.687L12.237,14.757L19.46,14.757L19.46,16.222C19.461,20.613 16.544,23.565 12.202,23.565ZM25.267,12.525L23.481,12.525L23.481,14.758L21.248,14.758L21.248,16.544L23.481,16.544L23.481,18.777L25.267,18.777L25.267,16.544L27.501,16.544L27.501,14.758L25.267,14.758L25.267,12.525Z" style="fill:white;"/>
        </g>
    </g>
</svg>
