<?xml version="1.0" standalone="no"?><!DOCTYPE svg PUBLIC "-//W3C//DTD SVG 1.1//EN" "http://www.w3.org/Graphics/SVG/1.1/DTD/svg11.dtd"><svg width="100%" height="100%" viewBox="0 0 807 432" version="1.1" xmlns="http://www.w3.org/2000/svg" xmlns:xlink="http://www.w3.org/1999/xlink" xml:space="preserve" style="fill-rule:evenodd;clip-rule:evenodd;stroke-linecap:round;stroke-linejoin:round;stroke-miterlimit:1.41421;"><g id="Layer1"><g><rect id="bg" x="0" y="-64.025" width="806.4" height="504" style="fill:url(#_Linear1);"/><g><g id="links"><g><path d="M709.829,85.538l-105.12,33.6l93.12,14.88l12,-48.48Z" style="fill:none;stroke-width:0.5px;stroke:#fff;"/><path d="M253.269,123.412l-32.64,-48.33l61.2,3.867l-28.56,44.463Z" style="fill:none;stroke-width:0.5px;stroke:#fff;"/><path d="M286.149,164.389l-34.92,-40.977l60.021,45.1l-29.421,-89.003" style="fill:none;stroke-width:0.5px;stroke:#fff;"/></g><g><path d="M285,164.672l24.96,3.84" style="fill:none;stroke-width:0.5px;stroke:#fff;"/><path d="M338.709,46.068l-20.8,25.6l70.4,-25.086l-49.6,-0.514Z" style="fill:none;stroke-width:0.5px;stroke:#fff;"/><path d="M317.909,71.668l93.92,46.118l-23.52,-69.914l36.96,-18.096" style="fill:none;stroke-width:0.5px;stroke:#fff;"/><path d="M425.269,29.776l-13.44,88.01l48.64,7.998l-16.64,54.4l-1.28,-3.84" style="fill:none;stroke-width:0.5px;stroke:#fff;"/><path d="M337.44,46.068l87.829,-16.292" style="fill:none;stroke-width:0.5px;stroke:#fff;"/><path d="M411.829,117.786l32.08,62.398" style="fill:none;stroke-width:0.5px;stroke:#fff;"/><path d="M461.549,127.048l28.44,89.055l-46.08,-35.919" style="fill:none;stroke-width:0.5px;stroke:#fff;"/><path d="M61.749,209.226l106.08,-34.802l-93.76,-14.4l-12.32,49.202Z" style="fill:none;stroke-width:0.5px;stroke:#fff;"/><path d="M84.629,146.264l-9.6,13.76" style="fill:none;stroke-width:0.5px;stroke:#fff;"/><path d="M167.829,174.744l-83.2,-28.48" style="fill:none;stroke-width:0.5px;stroke:#fff;"/><path d="M604.709,120.098l14.88,-47.52l90.24,12.96" style="fill:none;stroke-width:0.5px;stroke:#fff;"/><path d="M709.829,85.538l-23.259,-66.466l-66.981,53.506" style="fill:none;stroke-width:0.5px;stroke:#fff;"/><path d="M604.709,120.098l81.6,27.84l11.04,-13.92" style="fill:none;stroke-width:0.5px;stroke:#fff;"/></g></g><g id="stars"><circle cx="281.13" cy="31.222" r="1.29" style="fill:#fff;"/><circle cx="338.73" cy="46.582" r="1.29" style="fill:#fff;"/><circle cx="410.73" cy="118.582" r="1.29" style="fill:#fff;"/><circle cx="519.21" cy="108.982" r="1.29" style="fill:#fff;"/><circle cx="619.37" cy="73.792" r="1.29" style="fill:#fff;"/><circle cx="686.57" cy="19.072" r="1.29" style="fill:#fff;"/><circle cx="675.37" cy="15.232" r="1.29" style="fill:#fff;"/><circle cx="637.61" cy="15.552" r="1.29" style="fill:#fff;"/><circle cx="512.17" cy="34.752" r="1.29" style="fill:#fff;"/><circle cx="286.29" cy="164.672" r="1.29" style="fill:#fff;"/><circle cx="311.25" cy="168.512" r="1.29" style="fill:#fff;"/><circle cx="84.69" cy="146.752" r="1.29" style="fill:#fff;"/><circle cx="53.33" cy="90.432" r="1.29" style="fill:#fff;"/><circle cx="68.05" cy="82.822" r="1.29" style="fill:#fff;"/><circle cx="281.13" cy="31.222" r="1.29" style="fill:#fff;"/><circle cx="282.42" cy="78.952" r="2.58" style="fill:#fff;"/><circle cx="74.42" cy="160.872" r="2.58" style="fill:#fff;"/><circle cx="221.94" cy="73.792" r="2.58" style="fill:#fff;"/><circle cx="193.14" cy="116.002" r="2.58" style="fill:#fff;"/><circle cx="253.14" cy="122.452" r="4.74" style="fill:#fff;"/><circle cx="149.94" cy="83.692" r="4.74" style="fill:#fff;"/><circle cx="709.62" cy="86.272" r="4.74" style="fill:#fff;"/><circle cx="91.38" cy="28.352" r="2.58" style="fill:#fff;"/><circle cx="317.61" cy="72.502" r="1.29" style="fill:#fff;"/><circle cx="388.33" cy="46.262" r="1.29" style="fill:#fff;"/><circle cx="281.13" cy="31.222" r="1.29" style="fill:#fff;"/><circle cx="424.98" cy="29.152" r="2.58" style="fill:#fff;"/><circle cx="190.56" cy="20.512" r="2.58" style="fill:#fff;"/><circle cx="444.66" cy="181.312" r="2.58" style="fill:#fff;"/><circle cx="613.62" cy="234.112" r="2.58" style="fill:#fff;"/><circle cx="604.02" cy="120.832" r="2.58" style="fill:#fff;"/></g><g id="stars1"><circle cx="490.379" cy="264.338" r="1.29" style="fill:#fff;"/><circle cx="432.779" cy="248.978" r="1.29" style="fill:#fff;"/><circle cx="360.779" cy="176.978" r="1.29" style="fill:#fff;"/><circle cx="252.299" cy="186.578" r="1.29" style="fill:#fff;"/><circle cx="152.139" cy="221.768" r="1.29" style="fill:#fff;"/><circle cx="84.939" cy="276.488" r="1.29" style="fill:#fff;"/><circle cx="96.139" cy="280.328" r="1.29" style="fill:#fff;"/><circle cx="133.899" cy="280.008" r="1.29" style="fill:#fff;"/><circle cx="259.339" cy="260.808" r="1.29" style="fill:#fff;"/><circle cx="485.219" cy="130.888" r="1.29" style="fill:#fff;"/><circle cx="460.259" cy="127.048" r="1.29" style="fill:#fff;"/><circle cx="686.819" cy="148.808" r="1.29" style="fill:#fff;"/><circle cx="718.179" cy="205.128" r="1.29" style="fill:#fff;"/><circle cx="703.459" cy="212.738" r="1.29" style="fill:#fff;"/><circle cx="490.379" cy="264.338" r="1.29" style="fill:#fff;"/><circle cx="489.089" cy="216.608" r="2.58" style="fill:#fff;"/><circle cx="697.089" cy="134.688" r="2.58" style="fill:#fff;"/><circle cx="549.569" cy="221.768" r="2.58" style="fill:#fff;"/><circle cx="578.369" cy="179.558" r="2.58" style="fill:#fff;"/><circle cx="518.369" cy="173.108" r="4.74" style="fill:#fff;"/><circle cx="621.569" cy="211.868" r="4.74" style="fill:#fff;"/><circle cx="61.889" cy="209.288" r="4.74" style="fill:#fff;"/><circle cx="680.129" cy="267.208" r="2.58" style="fill:#fff;"/><circle cx="453.899" cy="223.058" r="1.29" style="fill:#fff;"/><circle cx="383.179" cy="249.298" r="1.29" style="fill:#fff;"/><circle cx="490.379" cy="264.338" r="1.29" style="fill:#fff;"/><circle cx="346.529" cy="266.408" r="2.58" style="fill:#fff;"/><circle cx="580.949" cy="275.048" r="2.58" style="fill:#fff;"/><circle cx="205.589" cy="299.048" r="2.58" style="fill:#fff;"/><circle cx="326.849" cy="114.248" r="2.58" style="fill:#fff;"/><circle cx="157.889" cy="61.448" r="2.58" style="fill:#fff;"/><circle cx="167.489" cy="174.728" r="2.58" style="fill:#fff;"/></g><g><g><path d="M149.904,380.641l-134.104,0l18.806,24.907l83.298,0l32,-24.907Z" style="fill:#8e5551;"/><path d="M93.189,382.047l0,-70.56" style="fill:none;stroke-width:4px;stroke:#8e5551;"/><path d="M95.109,311.363l0,59.52l38.88,4.56c-7.42,-23.262 -19.011,-48.736 -38.88,-64.08Z" style="fill:#fff;"/><path d="M91.012,311.363l-0.2,58.912l-14.2,5.168l14.4,-64.08Z" style="fill:#fff;"/></g><g><g><path d="M59.601,375.655l-16.615,-20.536l-16.615,20.536l8.308,7.424l16.615,0l8.307,-7.424Z" style="fill:#e05f54;"/><g><path d="M42.986,355.119l-7.374,20.536l14.748,0l-7.374,-20.536Z" style="fill:#ff897e;"/><path d="M35.612,375.655l7.374,7.424l0,-7.424l-7.374,0Z" style="fill:#ffbab4;"/><path d="M50.36,383.079l-7.374,-7.424l0,7.424l7.374,0Z" style="fill:#ff786b;"/></g></g><g><path d="M38.729,365.95l-19.492,-2.15l1.966,19.511l8.261,-0.424l8.763,-8.681l0.502,-8.256Z" style="fill:#e05f54;"/><g><path d="M19.237,363.8l6.84,14.683l7.778,-7.705l-14.618,-6.978Z" style="fill:#ff897e;"/><path d="M26.077,378.483l7.768,0.063l-3.879,-3.915l-3.889,3.852Z" style="fill:#ffbab4;"/><path d="M37.734,374.694l-7.768,-0.063l3.879,3.915l3.889,-3.852Z" style="fill:#ff786b;"/></g></g><g><path d="M67.679,373.017l-19.492,2.15l1.966,-19.511l8.261,0.424l8.762,8.681l0.503,8.256Z" style="fill:#e05f54;"/><g><path d="M48.187,375.167l6.84,-14.683l7.778,7.705l-14.618,6.978Z" style="fill:#ff897e;"/><path d="M55.027,360.484l7.768,-0.063l-3.879,3.915l-3.889,-3.852Z" style="fill:#ffbab4;"/><path d="M66.684,364.274l-7.768,0.062l3.879,-3.915l3.889,3.853Z" style="fill:#ff786b;"/></g></g><g><path d="M72.959,382.76l-19.492,2.149l1.966,-19.511l8.261,0.425l8.762,8.681l0.503,8.256Z" style="fill:#e05f54;"/><g><path d="M53.467,384.909l6.84,-14.683l7.778,7.706l-14.618,6.977Z" style="fill:#ff897e;"/><path d="M60.307,370.226l7.768,-0.063l-3.879,3.916l-3.889,-3.853Z" style="fill:#ffbab4;"/><path d="M71.964,374.016l-7.768,0.063l3.879,-3.916l3.889,3.853Z" style="fill:#ff786b;"/></g></g></g></g><g><path d="M57.875,251.966l21.636,10.195l5.454,-23.288l-9.697,-2.779l-13.546,6.546l-3.847,9.326Z" style="fill:#e05f54;"/><g><path d="M79.511,262.161l-2.079,-19.647l-12.023,5.811l14.102,13.836Z" style="fill:#ff897e;"/><path d="M77.432,242.514l-8.937,-3.147l2.925,6.052l6.012,-2.905Z" style="fill:#ffbab4;"/><path d="M62.483,242.272l8.937,3.147l-2.925,-6.052l-6.012,2.905Z" style="fill:#ff786b;"/></g></g><g><path d="M569.724,288.516l-29.736,16.618l-10.046,-32.55l13.505,-4.906l19.891,7.966l6.386,12.872Z" style="fill:#e05f54;"/><g><path d="M539.988,305.134l1.017,-28.12l17.656,7.071l-18.673,21.049Z" style="fill:#ff897e;"/><path d="M541.005,277.014l12.388,-5.353l-3.56,8.889l-8.828,-3.536Z" style="fill:#ffbab4;"/><path d="M562.221,275.197l-12.388,5.353l3.56,-8.889l8.828,3.536Z" style="fill:#ff786b;"/></g></g><g><path d="M588.054,237.675l13.165,33.393l5.58,-14.772l5.105,-0.114l-5.58,18.182l5.58,1.59l0.357,7.501l-6.649,-1.023l0.118,13.978l4.393,1.931l0.357,2.841l-15.079,0l0,-2.727l5.461,-2.5l-0.356,-15.795l-1.306,-0.341l0.149,-3.977l-4.096,-0.853l-0.416,-2.43l2.018,0l0.06,1.663l1.603,0.171l-12.333,-37.175l1.869,0.457Z" style="fill:#8e5551;"/><path d="M589.242,230.898l19.946,25.227" style="fill:none;stroke-width:1.4px;stroke:#8e5551;"/><path d="M589.865,229.023l-10.864,23.352" style="fill:none;stroke-width:0.93px;stroke:#8e5551;"/><path d="M588.512,231.665l-0.499,6.107l-5.2,-1.829l5.699,-4.278Z" style="fill:none;stroke-width:0.7px;stroke:#8e5551;"/><path d="M579.001,252.375l3.812,-16.023l-3.812,16.023Z" style="fill:none;stroke-width:0.7px;stroke:#8e5551;"/><path d="M587.871,237.772l-8.87,14.603" style="fill:none;stroke-width:0.7px;stroke:#8e5551;"/><path d="M610.667,256.125l-1.479,-5.523l-11.558,10.023" style="fill:none;stroke-width:0.93px;stroke:#8e5551;"/><path d="M609.669,253.193l-11.184,9.75" style="fill:none;stroke-width:0.37px;stroke:#8e5551;"/><path d="M606.891,257.77l-9.662,3.238" style="fill:none;stroke-width:0.37px;stroke:#8e5551;"/><path d="M605.822,260.902l-8.192,2.382l12.039,-12.682" style="fill:none;stroke-width:0.37px;stroke:#8e5551;"/><path d="M609.179,250.253l2.479,1.26l4.28,6.555l1.985,0.726c1.056,1.335 0.759,2.308 -0.509,3.019c-1.641,-0.401 -3.352,-0.984 -5.153,-1.802l0.471,-1.943l-2.065,-1.295l-1.488,-6.52Z" style="fill:#8e5551;"/><path d="M578.272,252.345l-2.365,2.779l4.271,-0.873l0,-4.625l-1.906,2.719Z" style="fill:#8e5551;"/><rect x="577.358" y="261.388" width="2.337" height="1.2" style="fill:#8e5551;"/><rect x="578.042" y="262.588" width="0.959" height="1.227" style="fill:#8e5551;"/><path d="M579.001,261.388l0,-7.255" style="fill:none;stroke-width:0.26px;stroke:#8e5551;"/><path d="M578.042,261.388l0,-7.255" style="fill:none;stroke-width:0.26px;stroke:#8e5551;"/><path d="M587.544,233.994l0.477,-3.442l2.023,-2.069l1.093,0.972l-1.272,1.344l-2.321,3.195Z" style="fill:#8e5551;"/><rect x="609.778" y="274.132" width="1.484" height="2.045" style="fill:#8e5551;"/></g><g><path d="M651.793,218.9l-17.057,43.266l-7.23,-19.14l-6.615,-0.148l7.23,23.557l-7.23,2.061l-0.461,9.718l8.614,-1.325l-0.154,18.11l-5.691,2.502l-0.462,3.681l19.536,0l0,-3.533l-7.076,-3.239l0.462,-20.465l1.692,-0.442l-0.192,-5.153l5.307,-1.104l0.538,-3.149l-2.615,0l-0.077,2.155l-2.077,0.221l15.98,-48.164l-2.422,0.591Z" style="fill:#8e5551;"/><path d="M650.253,210.119l-25.843,32.685" style="fill:none;stroke-width:1.81px;stroke:#8e5551;"/><path d="M649.446,207.69l14.075,30.256" style="fill:none;stroke-width:1.21px;stroke:#8e5551;"/><path d="M651.199,211.113l0.647,7.913l6.737,-2.37l-7.384,-5.543Z" style="fill:none;stroke-width:0.91px;stroke:#8e5551;"/><path d="M663.521,237.946l-4.938,-20.76l4.938,20.76Z" style="fill:none;stroke-width:0.91px;stroke:#8e5551;"/><path d="M652.03,219.026l11.491,18.92" style="fill:none;stroke-width:0.91px;stroke:#8e5551;"/><path d="M622.495,242.804l1.915,-7.155l14.975,12.986" style="fill:none;stroke-width:1.21px;stroke:#8e5551;"/><path d="M623.787,239.006l14.491,12.632" style="fill:none;stroke-width:0.48px;stroke:#8e5551;"/><path d="M627.387,244.936l12.518,4.196" style="fill:none;stroke-width:0.48px;stroke:#8e5551;"/><path d="M628.771,248.994l10.614,3.086l-15.598,-16.431" style="fill:none;stroke-width:0.48px;stroke:#8e5551;"/><path d="M624.422,235.197l-3.211,1.632l-5.546,8.493l-2.571,0.94c-1.369,1.731 -0.984,2.99 0.659,3.912c2.126,-0.52 4.342,-1.275 6.677,-2.334l-0.612,-2.518l2.677,-1.678l1.927,-8.447Z" style="fill:#8e5551;"/><path d="M664.466,237.908l3.064,3.599l-5.533,-1.13l0,-5.993l2.469,3.524Z" style="fill:#8e5551;"/><rect x="662.623" y="249.623" width="3.027" height="1.555" style="fill:#8e5551;"/><rect x="663.521" y="251.178" width="1.242" height="1.59" style="fill:#8e5551;"/><path d="M663.521,249.623l0,-9.399" style="fill:none;stroke-width:0.33px;stroke:#8e5551;"/><path d="M664.764,249.623l0,-9.399" style="fill:none;stroke-width:0.33px;stroke:#8e5551;"/><path d="M652.453,214.131l-0.618,-4.459l-2.621,-2.682l-1.417,1.26l1.649,1.741l3.007,4.14Z" style="fill:#8e5551;"/><rect x="621.723" y="266.135" width="1.923" height="2.65" style="fill:#8e5551;"/></g><g><path d="M658.762,245.247l-11.118,29.164l-4.712,-12.902l-4.312,-0.099l4.713,15.879l-4.713,1.389l-0.301,6.551l5.615,-0.893l-0.1,12.207l-3.71,1.687l-0.301,2.481l12.734,0l0,-2.382l-4.612,-2.183l0.301,-13.795l1.103,-0.298l-0.126,-3.473l3.459,-0.744l0.351,-2.123l-1.704,0l-0.05,1.453l-1.354,0.148l10.415,-32.466l-1.578,0.399Z" style="fill:#8e5551;"/><path d="M657.758,239.328l-16.844,22.032" style="fill:none;stroke-width:1.2px;stroke:#8e5551;"/><path d="M657.232,237.69l9.174,20.395" style="fill:none;stroke-width:0.8px;stroke:#8e5551;"/><path d="M658.375,239.998l0.421,5.334l4.392,-1.598l-4.813,-3.736Z" style="fill:none;stroke-width:0.6px;stroke:#8e5551;"/><path d="M666.406,258.085l-3.218,-13.994l3.218,13.994Z" style="fill:none;stroke-width:0.6px;stroke:#8e5551;"/><path d="M658.916,245.332l7.49,12.753" style="fill:none;stroke-width:0.6px;stroke:#8e5551;"/><path d="M639.666,261.36l1.248,-4.823l9.761,8.753" style="fill:none;stroke-width:0.8px;stroke:#8e5551;"/><path d="M640.508,258.8l9.445,8.515" style="fill:none;stroke-width:0.32px;stroke:#8e5551;"/><path d="M642.854,262.797l8.159,2.828" style="fill:none;stroke-width:0.32px;stroke:#8e5551;"/><path d="M643.756,265.532l6.919,2.081l-10.167,-11.076" style="fill:none;stroke-width:0.32px;stroke:#8e5551;"/><path d="M640.921,256.232l-2.092,1.1l-3.615,5.725l-1.676,0.634c-0.892,1.166 -0.641,2.016 0.43,2.637c1.385,-0.351 2.83,-0.86 4.351,-1.574l-0.398,-1.697l1.745,-1.131l1.255,-5.694Z" style="fill:#8e5551;"/><path d="M667.022,258.059l1.997,2.427l-3.606,-0.762l0,-4.04l1.609,2.375Z" style="fill:#8e5551;"/><rect x="665.821" y="265.957" width="1.973" height="1.048" style="fill:#8e5551;"/><rect x="666.406" y="267.005" width="0.81" height="1.072" style="fill:#8e5551;"/><path d="M666.406,265.957l0,-6.336" style="fill:none;stroke-width:0.22px;stroke:#8e5551;"/><path d="M667.216,265.957l0,-6.336" style="fill:none;stroke-width:0.22px;stroke:#8e5551;"/><path d="M659.192,242.032l-0.403,-3.006l-1.708,-1.808l-0.924,0.85l1.075,1.173l1.96,2.791Z" style="fill:#8e5551;"/><rect x="639.163" y="277.086" width="1.253" height="1.786" style="fill:#8e5551;"/></g><g><g><path d="M737.422,278.486l0,-13.991l5.394,-6.932l5.395,6.932l5.395,-6.932l5.151,6.62l4.98,-6.62l5.215,6.932l5.214,-6.932l5.049,6.711l5.048,-6.711l5.215,6.932l5.215,-6.932l5.214,6.932l0,13.991l-62.485,0Z" style="fill:#8e5551;"/></g><g><g><rect x="701.274" y="257.874" width="36.868" height="20.923" style="fill:#8e5551;"/><path d="M738.983,258.716l-38.551,0l6.349,-12.034l25.854,0l6.348,12.034Z" style="fill:#8e5551;"/></g><g><path d="M727.216,271.658l-15.016,0l3.114,-6.643l8.548,0l3.354,6.643Z" style="fill:#7a4743;"/><path d="M723.984,268.024l-8.552,0l0,-23.947l4.276,-7.67l4.276,7.67l0,23.947Z" style="fill:#7a4743;"/></g></g></g><path d="M806.4,315.128l-302.133,-5.76l19.2,-9.808l17.92,2.427l73.6,-1.92l49.92,-15.04l31.685,-9.421l41.55,2.88l24.706,-4.48l22.699,4.48l20.853,-5.939" style="fill:#e05f54;"/><g><g><g><path d="M225.701,215.126l13.246,-4.48l7.664,1.692l-2.289,2.788l0.099,5.076l-18.812,1.294l0.092,-6.37Z" style="fill:#7a4743;"/><g><path d="M217.75,217.581l7.958,-2.455l0.299,4.977l6.37,-2.522l0,2.123l4.181,-1.194l2.787,0l0,-0.929l2.289,0l0.1,1.327l4.479,0l0,7.914l3.086,0l0,1.543l3.981,0l0,50.963l-32.439,0l0,-56.538l-3.942,-3.584l0.851,-1.625Z" style="fill:#8e5551;"/><path d="M236.579,218.518l0,60.81l16.701,0l0,-50.945l-3.99,0l0,-1.529l-3.119,0l0,-8.011l-4.464,0l0,-1.262l-2.324,0l0,0.926l-2.804,0.011Z" style="fill:#98716f;"/></g></g><path d="M210.745,237.994l5.292,0l0,-3.073l-5.296,0l0.004,3.073ZM210.775,257.583l0.033,21.745l-8.379,0l-4.999,-59.132l3.822,-29.682l9.436,9.913l0.049,31.953l5.3,0l0,-6.211l-1.377,0l0,-7.286l3.567,-1.302l0,2.057l0.862,0l0,1.46l1.752,0l0,58.23l-4.804,0l0,-21.745l-5.262,0Z" style="fill:#7a4743;"/></g><path d="M199.655,189.666l1.729,0l0,29.639l1.045,0l0,60.023l-21.947,0l0.062,-3.062l0,-56.364l2.837,0l0,-11.945l-1.481,0l0,-14.26l3.882,0l0,-4.031l5.673,0l0,-1.691l8.2,0l0,1.691Z" style="fill:#8e5551;"/></g><path d="M391.907,287.271l-104.32,-0.32l0,4.007l109.44,0l-5.12,-3.687Z" style="fill:#8e5551;"/><path d="M367.987,299.56l97.282,0" style="fill:none;stroke-width:8px;stroke:#fff;"/><path d="M367.987,318.222l97.282,0" style="fill:none;stroke-width:4px;stroke:#fff;"/><path d="M369.153,333.582l97.282,0" style="fill:none;stroke-width:4px;stroke:#fff;"/><path d="M0,290.958l0,-42.521l61.455,14.34l39.36,-1.92l49.92,15.04l73.6,1.92l53.12,-4.48l24.96,17.621l-302.415,0Z" style="fill:#8e5551;"/><path d="M0,302.478l0,-36.64l10.895,0.949l29.12,6.87l40.32,7.36l34.56,8.32l55.68,1.621l22.4,11.52l-192.975,0Z" style="fill:#e05f54;"/></g><g id="stars2"><circle cx="328.742" cy="45.985" r="1.29" style="fill:#fff;"/><circle cx="386.342" cy="30.625" r="1.29" style="fill:#fff;"/><circle cx="666.982" cy="3.415" r="1.29" style="fill:#fff;"/><circle cx="734.182" cy="58.135" r="1.29" style="fill:#fff;"/><circle cx="722.982" cy="61.975" r="1.29" style="fill:#fff;"/><circle cx="685.222" cy="61.655" r="1.29" style="fill:#fff;"/><circle cx="559.782" cy="42.455" r="1.29" style="fill:#fff;"/><circle cx="328.742" cy="45.985" r="1.29" style="fill:#fff;"/><circle cx="269.552" cy="3.415" r="2.58" style="fill:#fff;"/><circle cx="138.992" cy="48.855" r="2.58" style="fill:#fff;"/><circle cx="365.222" cy="4.705" r="1.29" style="fill:#fff;"/><circle cx="435.942" cy="30.945" r="1.29" style="fill:#fff;"/><circle cx="328.742" cy="45.985" r="1.29" style="fill:#fff;"/><circle cx="472.592" cy="48.055" r="2.58" style="fill:#fff;"/><circle cx="238.172" cy="56.695" r="2.58" style="fill:#fff;"/><circle cx="613.532" cy="80.695" r="2.58" style="fill:#fff;"/></g><path d="M600.587,439.975l-365.79,0l129.27,-96.851l106.546,0l129.974,96.851Z" style="fill:#896864;"/><g><g><path d="M367.987,343.124l0,-43.564" style="fill:none;stroke-width:8px;stroke-linecap:butt;stroke:#fff;"/><path d="M317.914,385.521c-0.272,-0.021 -0.341,-0.018 -0.609,-0.07c-0.301,-0.058 -0.595,-0.151 -0.874,-0.277c-0.467,-0.209 -0.892,-0.508 -1.246,-0.876c-0.426,-0.442 -0.747,-0.982 -0.932,-1.567c-0.092,-0.292 -0.151,-0.595 -0.174,-0.901c-0.008,-0.101 -0.008,-0.204 -0.012,-0.306l0,-60.182c0.01,-0.272 0.005,-0.341 0.047,-0.611c0.062,-0.404 0.187,-0.798 0.368,-1.164c0.182,-0.366 0.419,-0.704 0.703,-0.999c0.283,-0.294 0.612,-0.545 0.971,-0.74c0.539,-0.293 1.144,-0.46 1.758,-0.483c0.613,-0.024 1.229,0.096 1.789,0.347c0.466,0.209 0.891,0.508 1.246,0.876c0.497,0.517 0.849,1.165 1.013,1.863c0.046,0.199 0.077,0.401 0.093,0.605c0.008,0.102 0.008,0.204 0.012,0.306l0,60.182c-0.011,0.272 -0.005,0.341 -0.047,0.611c-0.047,0.303 -0.129,0.6 -0.243,0.884c-0.23,0.57 -0.591,1.083 -1.049,1.491c-0.381,0.34 -0.828,0.606 -1.309,0.779c-0.289,0.103 -0.589,0.174 -0.893,0.209c-0.102,0.012 -0.204,0.015 -0.306,0.023c-0.102,0 -0.204,0 -0.306,0Z" style="fill:#fff;fill-rule:nonzero;"/><path d="M243.647,439.635c-0.119,-0.011 -0.239,-0.016 -0.357,-0.032c-0.356,-0.049 -0.705,-0.145 -1.035,-0.286c-0.551,-0.235 -1.046,-0.595 -1.441,-1.046c-0.394,-0.452 -0.684,-0.991 -0.843,-1.568c-0.064,-0.231 -0.107,-0.467 -0.128,-0.706c-0.011,-0.119 -0.011,-0.239 -0.016,-0.358l0,-80.662c0.014,-0.319 0.007,-0.4 0.064,-0.715c0.15,-0.826 0.564,-1.596 1.172,-2.177c0.259,-0.248 0.552,-0.461 0.868,-0.631c0.528,-0.284 1.118,-0.446 1.716,-0.473c0.599,-0.027 1.201,0.082 1.752,0.318c0.44,0.188 0.846,0.456 1.192,0.786c0.346,0.331 0.632,0.725 0.84,1.156c0.207,0.432 0.337,0.9 0.38,1.377c0.01,0.119 0.01,0.239 0.016,0.359l0,80.662c-0.006,0.119 -0.006,0.239 -0.016,0.358c-0.033,0.358 -0.113,0.711 -0.239,1.047c-0.211,0.561 -0.548,1.072 -0.981,1.486c-0.433,0.414 -0.958,0.728 -1.528,0.913c-0.228,0.074 -0.462,0.127 -0.699,0.16c-0.119,0.016 -0.239,0.021 -0.358,0.032c-0.119,0 -0.239,0 -0.359,0Z" style="fill:#fff;fill-rule:nonzero;"/></g><path d="M122.645,439.975l-12.258,0c0,-0.164 0.01,-0.327 0.03,-0.489c0.051,-0.414 0.169,-0.825 0.345,-1.203c0.481,-1.029 0.825,-1.134 1.687,-1.807l253.6,-140.416c1.028,-0.373 1.3,-0.609 2.427,-0.47c0.414,0.051 0.825,0.169 1.203,0.345c0.378,0.177 0.732,0.416 1.037,0.701c0.305,0.284 0.568,0.621 0.77,0.986c0.409,0.739 0.574,1.589 0.471,2.427c-0.051,0.414 -0.169,0.825 -0.346,1.203c-0.48,1.029 -0.825,1.134 -1.687,1.807l-247.279,136.916Z" style="fill:#fff;"/><path d="M155.404,439.975l-11,0l0,-40.331c0.005,-0.137 0.005,-0.274 0.016,-0.411c0.02,-0.273 0.061,-0.545 0.122,-0.813c0.214,-0.937 0.677,-1.812 1.33,-2.517c0.374,-0.402 0.807,-0.748 1.282,-1.022c0.475,-0.274 0.992,-0.477 1.526,-0.599c0.535,-0.122 1.088,-0.163 1.635,-0.122c0.684,0.051 1.358,0.231 1.976,0.529c0.494,0.238 0.952,0.55 1.354,0.924c0.503,0.466 0.917,1.027 1.215,1.645c0.238,0.494 0.401,1.024 0.483,1.567c0.054,0.362 0.048,0.454 0.061,0.819l0,40.331Z" style="fill:#fff;"/><path d="M163.011,439.975l-7.848,0l211.804,-125.474l0.736,-0.259c0.774,0.042 0.785,0.045 1.483,0.38l0.521,0.581c0.258,0.731 0.259,0.741 0.217,1.515l-0.337,0.704l-0.581,0.521l-205.995,122.032Z" style="fill:#fff;"/><path d="M206.727,439.975l-7.282,0l167.443,-110.064c0.626,-0.254 0.802,-0.433 1.504,-0.288c0.254,0.053 0.479,0.203 0.718,0.305l0.548,0.555l0.293,0.724l-0.006,0.78l-0.304,0.719l-0.556,0.547l-162.358,106.722Z" style="fill:#fff;"/></g><g><g><path d="M466.389,343.124l0,-43.564" style="fill:none;stroke-width:8px;stroke-linecap:butt;stroke:#fff;"/><path d="M516.462,385.521c0.271,-0.021 0.341,-0.018 0.608,-0.07c0.301,-0.058 0.595,-0.151 0.875,-0.277c0.466,-0.209 0.891,-0.508 1.246,-0.876c0.425,-0.442 0.746,-0.982 0.931,-1.567c0.093,-0.292 0.152,-0.595 0.175,-0.901c0.008,-0.101 0.008,-0.204 0.012,-0.306l0,-60.182c-0.011,-0.272 -0.005,-0.341 -0.047,-0.611c-0.062,-0.404 -0.187,-0.798 -0.369,-1.164c-0.181,-0.366 -0.419,-0.704 -0.702,-0.999c-0.284,-0.294 -0.612,-0.545 -0.971,-0.74c-0.539,-0.293 -1.145,-0.46 -1.758,-0.483c-0.613,-0.024 -1.23,0.096 -1.789,0.347c-0.467,0.209 -0.892,0.508 -1.246,0.876c-0.497,0.517 -0.85,1.165 -1.013,1.863c-0.047,0.199 -0.078,0.401 -0.093,0.605c-0.008,0.102 -0.008,0.204 -0.012,0.306l0,60.182c0.01,0.272 0.005,0.341 0.047,0.611c0.046,0.303 0.128,0.6 0.243,0.884c0.229,0.57 0.59,1.083 1.048,1.491c0.382,0.34 0.829,0.606 1.31,0.779c0.288,0.103 0.589,0.174 0.893,0.209c0.102,0.012 0.204,0.015 0.306,0.023c0.102,0 0.204,0 0.306,0Z" style="fill:#fff;fill-rule:nonzero;"/><path d="M590.728,439.635c0.119,-0.011 0.239,-0.016 0.358,-0.032c0.356,-0.049 0.705,-0.145 1.035,-0.286c0.551,-0.235 1.046,-0.595 1.44,-1.046c0.394,-0.452 0.684,-0.991 0.844,-1.568c0.063,-0.231 0.106,-0.467 0.128,-0.706c0.01,-0.119 0.01,-0.239 0.016,-0.358l0,-80.662c-0.015,-0.319 -0.007,-0.4 -0.064,-0.715c-0.151,-0.826 -0.565,-1.596 -1.172,-2.177c-0.26,-0.248 -0.553,-0.461 -0.869,-0.631c-0.527,-0.284 -1.117,-0.446 -1.716,-0.473c-0.598,-0.027 -1.201,0.082 -1.751,0.318c-0.441,0.188 -0.846,0.456 -1.192,0.786c-0.347,0.331 -0.632,0.725 -0.84,1.156c-0.208,0.432 -0.337,0.9 -0.38,1.377c-0.011,0.119 -0.011,0.239 -0.016,0.359l0,80.662c0.005,0.119 0.005,0.239 0.016,0.358c0.032,0.358 0.113,0.711 0.239,1.047c0.21,0.561 0.548,1.072 0.981,1.486c0.432,0.414 0.958,0.728 1.528,0.913c0.228,0.074 0.462,0.127 0.699,0.16c0.118,0.016 0.238,0.021 0.357,0.032c0.12,0 0.24,0 0.359,0Z" style="fill:#fff;fill-rule:nonzero;"/></g><path d="M711.731,439.975l12.257,0c0.001,-0.164 -0.009,-0.327 -0.029,-0.489c-0.051,-0.414 -0.169,-0.825 -0.346,-1.203c-0.48,-1.029 -0.824,-1.134 -1.687,-1.807l-253.6,-140.416c-1.028,-0.373 -1.299,-0.609 -2.427,-0.47c-0.414,0.051 -0.824,0.169 -1.202,0.345c-0.378,0.177 -0.733,0.416 -1.038,0.701c-0.305,0.284 -0.568,0.621 -0.77,0.986c-0.409,0.739 -0.573,1.589 -0.47,2.427c0.051,0.414 0.169,0.825 0.345,1.203c0.481,1.029 0.825,1.134 1.687,1.807l247.28,136.916Z" style="fill:#fff;"/><path d="M678.971,439.975l11,0l0,-40.331c-0.005,-0.137 -0.005,-0.274 -0.015,-0.411c-0.021,-0.273 -0.062,-0.545 -0.123,-0.813c-0.214,-0.937 -0.676,-1.812 -1.33,-2.517c-0.373,-0.402 -0.807,-0.748 -1.282,-1.022c-0.475,-0.274 -0.991,-0.477 -1.526,-0.599c-0.535,-0.122 -1.088,-0.163 -1.635,-0.122c-0.684,0.051 -1.357,0.231 -1.975,0.529c-0.494,0.238 -0.952,0.55 -1.355,0.924c-0.503,0.466 -0.916,1.027 -1.214,1.645c-0.238,0.494 -0.402,1.024 -0.483,1.567c-0.055,0.362 -0.048,0.454 -0.062,0.819l0,40.331Z" style="fill:#fff;"/><path d="M671.364,439.975l7.848,0l-211.804,-125.474l-0.736,-0.259c-0.774,0.042 -0.784,0.045 -1.483,0.38l-0.521,0.581c-0.257,0.731 -0.259,0.741 -0.217,1.515l0.338,0.704l0.58,0.521l205.995,122.032Z" style="fill:#fff;"/><path d="M627.648,439.975l7.282,0l-167.443,-110.064c-0.625,-0.254 -0.801,-0.433 -1.503,-0.288c-0.255,0.053 -0.479,0.203 -0.719,0.305l-0.547,0.555l-0.294,0.724l0.006,0.78l0.304,0.719l0.556,0.547l162.358,106.722Z" style="fill:#fff;"/></g><g><path d="M411.84,343.124l-26.653,96.851" style="fill:none;stroke-width:3px;stroke:#61c8c3;"/><path d="M394.673,343.124l-51.499,96.851" style="fill:none;stroke-width:3px;stroke:#61c8c3;"/><path d="M379.793,343.124l-86.059,96.851" style="fill:none;stroke-width:3px;stroke:#61c8c3;"/></g><g><path d="M423.473,343.124l26.654,96.851" style="fill:none;stroke-width:3px;stroke:#61c8c3;"/><path d="M440.64,343.124l51.5,96.851" style="fill:none;stroke-width:3px;stroke:#61c8c3;"/><path d="M455.52,343.124l86.06,96.851" style="fill:none;stroke-width:3px;stroke:#61c8c3;"/></g></g></g><defs><linearGradient id="_Linear1" x1="0" y1="0" x2="1" y2="0" gradientUnits="userSpaceOnUse" gradientTransform="matrix(2.88,311.378,-285.12,3.14523,781.92,-33.1862)"><stop offset="0%" style="stop-color:#4193a3;stop-opacity:1"/><stop offset="100%" style="stop-color:#61c8c3;stop-opacity:1"/></linearGradient></defs></svg>