<?xml version="1.0" standalone="no"?>
<!DOCTYPE svg PUBLIC "-//W3C//DTD SVG 1.1//EN" "http://www.w3.org/Graphics/SVG/1.1/DTD/svg11.dtd">
<svg width="100%" height="100%" viewBox="0 0 1174 1179" version="1.1" xmlns="http://www.w3.org/2000/svg" xmlns:xlink="http://www.w3.org/1999/xlink" xml:space="preserve" style="fill-rule:evenodd;clip-rule:evenodd;stroke-linecap:round;stroke-linejoin:round;stroke-miterlimit:1.41421;">
    <g transform="matrix(1,0,0,1,-3169,-591)">
        <g id="Layer1">
            <g transform="matrix(1,0,0,1,3433.74,388.276)">
                <circle cx="324.713" cy="794.404" r="571.257" style="fill:rgb(224,95,84);"/>
            </g>
            <g transform="matrix(0.880511,0,0,0.880511,690.157,43.9011)">
                <g transform="matrix(0.995788,-0.0916809,0.076273,0.828436,-136.83,494.001)">
                    <path d="M3687.69,913.765C3782.58,913.765 3859.62,1011.46 3859.62,1131.8C3859.62,1252.14 3787.84,1425.28 3692.95,1425.28C3598.06,1425.28 3515.76,1252.14 3515.76,1131.8C3515.76,1011.46 3592.8,913.765 3687.69,913.765Z" style="fill:none;stroke-width:38.58px;stroke:white;"/>
                </g>
                <g transform="matrix(0.972894,-0.231252,0.228169,0.959922,-421.152,913.538)">
                    <path d="M3874.53,1372.68L3905.23,1466.99L3843.83,1466.99L3874.53,1372.68Z" style="fill:rgb(224,95,84);stroke-width:35.73px;stroke:white;"/>
                </g>
            </g>
            <g transform="matrix(0.880511,0,0,0.880511,518.575,161.598)">
                <g transform="matrix(0.848051,0.215503,-0.193965,0.763293,1009.11,-518.916)">
                    <path d="M3687.69,913.765C3782.58,913.765 3859.62,1011.46 3859.62,1131.8C3859.62,1252.14 3787.84,1425.28 3692.95,1425.28C3598.06,1425.28 3515.76,1252.14 3515.76,1131.8C3515.76,1011.46 3592.8,913.765 3687.69,913.765Z" style="fill:rgb(224,95,84);stroke-width:42.64px;stroke:white;"/>
                </g>
                <g transform="matrix(0.978486,0.206311,-0.206311,0.978486,361.512,-771.521)">
                    <path d="M3874.53,1372.68L3905.23,1466.99L3843.83,1466.99L3874.53,1372.68Z" style="fill:rgb(224,95,84);stroke-width:35.49px;stroke:white;"/>
                </g>
            </g>
            <g transform="matrix(0.950168,-0.311738,0.254889,0.776896,-43.612,1340.65)">
                <path d="M3530.67,1091.97L3672.78,1517.55C3565.38,1610.74 3474.95,1589.65 3388.57,1517.55L3530.67,1091.97Z" style="fill:rgb(224,95,84);stroke-width:34.21px;stroke:white;"/>
            </g>
            <g transform="matrix(1,0,0,1,94.8585,49.6366)">
                <path d="M3468.04,1004.44C3449.38,932.738 3408.07,891.149 3326.73,916.233" style="fill:none;stroke-width:29.17px;stroke:white;"/>
                <g transform="matrix(0.855437,0.517906,-0.517906,0.855437,1026.1,-1650.92)">
                    <path d="M3468.04,1004.44C3449.24,954.565 3372.97,882.851 3305.68,918.724" style="fill:none;stroke-width:29.17px;stroke:white;"/>
                </g>
                <g transform="matrix(0.835423,-0.508324,0.519802,0.854287,48.6526,1909.25)">
                    <path d="M3468.04,1004.44C3459.24,944.506 3439.6,922.206 3344.6,930.98" style="fill:none;stroke-width:29.49px;stroke:white;"/>
                </g>
            </g>
        </g>
    </g>
</svg>
