<?xml version="1.0" encoding="UTF-8" standalone="no"?><!DOCTYPE svg PUBLIC "-//W3C//DTD SVG 1.1//EN" "http://www.w3.org/Graphics/SVG/1.1/DTD/svg11.dtd"><svg width="100%" height="100%" viewBox="0 0 115 74" version="1.1" xmlns="http://www.w3.org/2000/svg" xmlns:xlink="http://www.w3.org/1999/xlink" xml:space="preserve" style="fill-rule:evenodd;clip-rule:evenodd;stroke-linecap:round;stroke-linejoin:round;stroke-miterlimit:1.5;"><g><clipPath id="_clip1"><rect x="-192.72" y="-71.805" width="307.2" height="63.914"/></clipPath><g clip-path="url(#_clip1)"></g></g><g><g><path d="M114.187,6.709l-17.121,0" style="fill:none;stroke:#f3baba;stroke-width:1.46px;"/><path d="M114.48,32.718l-17.122,0" style="fill:none;stroke:#f3baba;stroke-width:1.46px;"/><path d="M95.377,10.761l-19.082,0" style="fill:none;stroke:#f3baba;stroke-width:1.46px;"/><path d="M105.919,25.66l-19.082,0" style="fill:none;stroke:#f3baba;stroke-width:1.46px;"/><path d="M82.786,25.66l-7.581,0" style="fill:none;stroke:#f3baba;stroke-width:1.46px;"/><path d="M93.417,6.709l-2.703,0" style="fill:none;stroke:#f3baba;stroke-width:1.46px;"/><path d="M88.189,6.709l-2.703,0" style="fill:none;stroke:#f3baba;stroke-width:1.46px;"/><g><path d="M102.032,10.903l0,4.333" style="fill:none;stroke:#f3baba;stroke-width:1.46px;"/><path d="M99.866,13.069l4.333,0" style="fill:none;stroke:#f3baba;stroke-width:1.46px;"/></g><g><path d="M77.371,1.028l0,4.333" style="fill:none;stroke:#f3baba;stroke-width:1.46px;"/><path d="M75.205,3.194l4.333,0" style="fill:none;stroke:#f3baba;stroke-width:1.46px;"/></g><g><path d="M73.186,16.636l0,4.333" style="fill:none;stroke:#f3baba;stroke-width:1.46px;"/><path d="M71.02,18.803l4.332,0" style="fill:none;stroke:#f3baba;stroke-width:1.46px;"/></g><g><path d="M91.25,31.06l0,4.333" style="fill:none;stroke:#f3baba;stroke-width:1.46px;"/><path d="M89.084,33.226l4.333,0" style="fill:none;stroke:#f3baba;stroke-width:1.46px;"/></g></g><g><g><path d="M7.67,26.961l5.191,4.799" style="fill:none;stroke:#f3baba;stroke-width:1.2px;"/><path d="M1.54,36.122l8.668,2.165" style="fill:none;stroke:#f3baba;stroke-width:1.2px;"/><path d="M3.919,44.494l6.16,-0.051" style="fill:none;stroke:#f3baba;stroke-width:1.2px;"/></g><g><path d="M61.835,28.308l-5.191,4.799" style="fill:none;stroke:#f3baba;stroke-width:1.2px;"/><path d="M67.965,37.469l-8.668,2.165" style="fill:none;stroke:#f3baba;stroke-width:1.2px;"/><path d="M65.586,45.841l-6.16,-0.051" style="fill:none;stroke:#f3baba;stroke-width:1.2px;"/></g><g><g><path d="M54.113,39.824l-39.985,0l7.846,-8.476l24.058,0l8.081,8.476Z" style="fill:#fff;stroke:#f3baba;stroke-width:1.2px;"/><path d="M33.969,64.051l19.962,-24.148l-39.924,0l19.962,24.148Z" style="fill:#fff;stroke:#f3baba;stroke-width:1.2px;"/></g><path d="M22.163,31.331l4.369,8.029l7.344,-7.961l6.091,7.834l6.079,-7.707" style="fill:none;stroke:#f3baba;stroke-width:1.2px;"/><path d="M26.351,39.635l7.655,23.622l5.912,-23.864" style="fill:none;stroke:#f3baba;stroke-width:1.2px;"/></g><g><g><path d="M66.332,63.039l-26.114,-14.137l8.121,-2.761l15.712,8.505l2.281,8.393Z" style="fill:#fff;stroke:#f3baba;stroke-width:1.2px;"/><path d="M44.611,71.74l21.575,-8.714l-26.074,-14.115l4.499,22.829Z" style="fill:#fff;stroke:#f3baba;stroke-width:1.2px;"/></g><path d="M48.468,46.197l0.015,6.787l7.611,-2.602l1.208,7.27l6.695,-2.885" style="fill:none;stroke:#f3baba;stroke-width:1.2px;"/><path d="M48.268,53.101l-3.352,18.133l12.298,-13.495" style="fill:none;stroke:#f3baba;stroke-width:1.2px;"/></g></g></g></svg>