<?xml version="1.0" encoding="UTF-8" standalone="no"?>
<!DOCTYPE svg PUBLIC "-//W3C//DTD SVG 1.1//EN" "http://www.w3.org/Graphics/SVG/1.1/DTD/svg11.dtd">
<svg width="100%" height="100%" viewBox="0 0 57 57" version="1.1" xmlns="http://www.w3.org/2000/svg" xmlns:xlink="http://www.w3.org/1999/xlink" xml:space="preserve" style="fill-rule:evenodd;clip-rule:evenodd;stroke-linejoin:round;stroke-miterlimit:1.41421;">
    <g transform="matrix(1.15738,0,0,1.15738,101.032,-63.1341)">
        <g transform="matrix(-0.319,-0.9478,0.9478,-0.319,-157.658,44.9101)">
            <rect x="-65.493" y="76.239" width="5.598" height="5.716" style="fill:white;"/>
        </g>
        <path d="M-62.668,54.55C-76.267,54.55 -87.293,65.574 -87.293,79.173C-87.293,92.773 -76.267,103.798 -62.668,103.798C-49.069,103.798 -38.044,92.773 -38.044,79.173C-38.044,65.574 -49.069,54.55 -62.668,54.55ZM-50.169,83.072L-52.804,83.959L-51.898,86.652C-51.46,87.951 -52.159,89.359 -53.458,89.796C-54.758,90.233 -56.165,89.534 -56.603,88.235L-57.509,85.543L-62.927,87.366L-62.01,90.09C-61.573,91.389 -62.271,92.797 -63.571,93.234C-64.87,93.671 -66.278,92.973 -66.715,91.673L-67.632,88.95L-70.146,89.796C-71.445,90.233 -72.852,89.534 -73.29,88.235C-73.727,86.936 -73.028,85.528 -71.729,85.091L-69.215,84.245L-71.001,78.939L-73.584,79.808C-74.883,80.245 -76.291,79.547 -76.728,78.248C-77.165,76.948 -76.466,75.541 -75.167,75.103L-72.585,74.234L-73.438,71.697C-73.876,70.398 -73.177,68.99 -71.878,68.553C-70.578,68.115 -69.171,68.814 -68.733,70.113L-67.88,72.65L-62.462,70.827L-63.326,68.259C-63.764,66.96 -63.065,65.552 -61.766,65.115C-60.466,64.677 -59.059,65.376 -58.621,66.675L-57.757,69.243L-55.191,68.38C-53.891,67.942 -52.484,68.641 -52.046,69.94C-51.609,71.24 -52.308,72.647 -53.607,73.085L-56.173,73.948L-54.387,79.254L-51.753,78.367C-50.453,77.93 -49.046,78.629 -48.608,79.928C-48.171,81.227 -48.87,82.635 -50.169,83.072Z" style="fill:white;fill-rule:nonzero;"/>
    </g>
</svg>
