<?xml version="1.0" standalone="no"?><!DOCTYPE svg PUBLIC "-//W3C//DTD SVG 1.1//EN" "http://www.w3.org/Graphics/SVG/1.1/DTD/svg11.dtd"><svg width="100%" height="100%" viewBox="0 0 807 366" version="1.1" xmlns="http://www.w3.org/2000/svg" xmlns:xlink="http://www.w3.org/1999/xlink" xml:space="preserve" style="fill-rule:evenodd;clip-rule:evenodd;stroke-linecap:round;stroke-linejoin:round;stroke-miterlimit:1.41421;"><g><rect id="bg" x="0" y="-5.961" width="806.327" height="372.392" style="fill:url(#_Linear1);"/><g><g id="links"><g><path d="M338.751,34.992l-20.798,25.6l70.393,-25.086l-49.595,-0.514Z" style="fill:none;stroke-width:0.1px;stroke:#fff;"/><path d="M317.953,60.592l93.911,46.117l-23.518,-71.112l36.957,-16.898" style="fill:none;stroke-width:0.1px;stroke:#fff;"/><path d="M425.303,18.699l-13.439,88.01l48.636,7.999l-16.639,54.4" style="fill:none;stroke-width:0.1px;stroke:#fff;"/><path d="M338.76,34.974l86.543,-16.275" style="fill:none;stroke-width:0.1px;stroke:#fff;"/><path d="M411.864,106.709l32.077,62.399" style="fill:none;stroke-width:0.1px;stroke:#fff;"/><path d="M461.58,115.972l28.437,89.054l-46.076,-35.918" style="fill:none;stroke-width:0.1px;stroke:#fff;"/><path d="M61.816,198.15l106.07,-34.803l-93.751,-14.4l-12.319,49.203Z" style="fill:none;stroke-width:0.1px;stroke:#fff;"/><path d="M84.694,135.187l-10.551,13.747" style="fill:none;stroke-width:0.1px;stroke:#fff;"/><path d="M167.886,163.667l-83.192,-28.48" style="fill:none;stroke-width:0.1px;stroke:#fff;"/><path d="M604.727,109.021l14.879,-47.52l90.231,12.96" style="fill:none;stroke-width:0.1px;stroke:#fff;"/><path d="M709.837,74.461l-23.256,-66.465l-66.975,53.505" style="fill:none;stroke-width:0.1px;stroke:#fff;"/><path d="M604.727,109.021l81.593,27.84l11.039,-13.92" style="fill:none;stroke-width:0.1px;stroke:#fff;"/></g><g id="stars"><ellipse cx="321.466" cy="28.139" rx="1.29" ry="1.29" style="fill:#fff;"/><ellipse cx="379.06" cy="43.499" rx="1.29" ry="1.29" style="fill:#fff;"/><ellipse cx="194.975" cy="49.877" rx="1.29" ry="1.29" style="fill:#fff;"/><ellipse cx="511.57" cy="37.593" rx="1.29" ry="1.29" style="fill:#fff;"/><ellipse cx="709.722" cy="74.728" rx="1.29" ry="1.29" style="fill:#fff;"/><ellipse cx="726.869" cy="15.989" rx="1.29" ry="1.29" style="fill:#fff;"/><ellipse cx="715.67" cy="12.149" rx="1.29" ry="1.29" style="fill:#fff;"/><ellipse cx="712.301" cy="29.761" rx="1.29" ry="1.29" style="fill:#fff;"/><ellipse cx="552.485" cy="31.669" rx="1.29" ry="1.29" style="fill:#fff;"/><ellipse cx="326.625" cy="161.589" rx="1.29" ry="1.29" style="fill:#fff;"/><ellipse cx="351.583" cy="165.429" rx="1.29" ry="1.29" style="fill:#fff;"/><ellipse cx="125.043" cy="143.669" rx="1.29" ry="1.29" style="fill:#fff;"/><ellipse cx="76.895" cy="43.159" rx="1.29" ry="1.29" style="fill:#fff;"/><ellipse cx="101.442" cy="52.269" rx="1.29" ry="1.29" style="fill:#fff;"/><ellipse cx="321.466" cy="28.139" rx="1.29" ry="1.29" style="fill:#fff;"/><ellipse cx="114.774" cy="157.789" rx="2.58" ry="2.58" style="fill:#fff;"/><ellipse cx="262.281" cy="70.709" rx="2.58" ry="2.58" style="fill:#fff;"/><ellipse cx="745.927" cy="26.348" rx="4.74" ry="4.74" style="fill:#fff;"/><ellipse cx="131.733" cy="25.269" rx="2.58" ry="2.58" style="fill:#fff;"/><ellipse cx="357.942" cy="69.419" rx="1.29" ry="1.29" style="fill:#fff;"/><ellipse cx="428.656" cy="43.179" rx="1.29" ry="1.29" style="fill:#fff;"/><ellipse cx="321.466" cy="28.139" rx="1.29" ry="1.29" style="fill:#fff;"/><ellipse cx="473.634" cy="35.214" rx="2.58" ry="2.58" style="fill:#fff;"/><ellipse cx="230.904" cy="17.429" rx="2.58" ry="2.58" style="fill:#fff;"/><ellipse cx="589.271" cy="70.858" rx="2.58" ry="2.58" style="fill:#fff;"/><ellipse cx="484.981" cy="178.229" rx="2.58" ry="2.58" style="fill:#fff;"/><ellipse cx="653.926" cy="231.029" rx="2.58" ry="2.58" style="fill:#fff;"/><ellipse cx="525.658" cy="84.717" rx="2.58" ry="2.58" style="fill:#fff;"/></g><g id="links2"><path d="M97.568,75.498l41.819,-65.767l18.771,40.713l12.01,14.558l-23.315,5.025l52.72,43.117l29.184,-41.568l6.886,-25.957l51.364,-9.112l-20.7,27.684l-21.284,-0.308l-14.047,6.958" style="fill:none;stroke-width:0.3px;stroke:#fff;"/><path d="M327.102,102.666l9.808,19.582l22.164,-13.198l13.169,6.462l20.886,56.893" style="fill:none;stroke-width:0.3px;stroke:#fff;"/><path d="M552.665,91.387l105.922,-36.497l39.469,46.653l-76.327,78.134l82.694,0.558l15.024,-8.042" style="fill:none;stroke-width:0.3px;stroke:#fff;"/><path d="M519.872,161.172l-28.46,44.474l-37.387,6.945l11.404,-51.726l54.443,0.307Z" style="fill:none;stroke-width:0.3px;stroke:#fff;"/><path d="M454.025,212.591l-21.206,25.495l-48.731,0.58l-18.817,-26.075l-23.62,-5.195" style="fill:none;stroke-width:0.3px;stroke:#fff;"/><path d="M474.247,36.7l5.965,34.011l-36.538,17.586l-49.023,1.295" style="fill:none;stroke-width:0.3px;stroke:#fff;"/></g></g><g id="stars1"><ellipse cx="303.448" cy="27.531" rx="1.29" ry="1.29" style="fill:#fff;"/><ellipse cx="286.737" cy="37.587" rx="1.29" ry="1.29" style="fill:#fff;"/><ellipse cx="358.73" cy="109.587" rx="1.29" ry="1.29" style="fill:#fff;"/><ellipse cx="467.201" cy="99.987" rx="1.29" ry="1.29" style="fill:#fff;"/><ellipse cx="411.939" cy="106.544" rx="0.645" ry="0.645" style="fill:#fff;"/><ellipse cx="567.351" cy="64.797" rx="1.29" ry="1.29" style="fill:#fff;"/><ellipse cx="686.35" cy="8.95" rx="1.29" ry="1.29" style="fill:#fff;"/><ellipse cx="642.69" cy="23.611" rx="1.29" ry="1.29" style="fill:#fff;"/><ellipse cx="504.82" cy="87.297" rx="1.29" ry="1.29" style="fill:#fff;"/><ellipse cx="460.161" cy="25.757" rx="1.29" ry="1.29" style="fill:#fff;"/><ellipse cx="234.301" cy="155.677" rx="1.29" ry="1.29" style="fill:#fff;"/><ellipse cx="266.347" cy="149.289" rx="1.29" ry="1.29" style="fill:#fff;"/><ellipse cx="32.72" cy="137.757" rx="1.29" ry="1.29" style="fill:#fff;"/><ellipse cx="63.587" cy="90.083" rx="1.29" ry="1.29" style="fill:#fff;"/><ellipse cx="51.072" cy="82.288" rx="1.29" ry="1.29" style="fill:#fff;"/><ellipse cx="158.42" cy="5.942" rx="1.29" ry="1.29" style="fill:#fff;"/><ellipse cx="230.432" cy="69.957" rx="2.58" ry="2.58" style="fill:#fff;"/><ellipse cx="22.451" cy="151.877" rx="2.58" ry="2.58" style="fill:#fff;"/><ellipse cx="169.957" cy="64.797" rx="2.58" ry="2.58" style="fill:#fff;"/><ellipse cx="141.16" cy="107.007" rx="2.58" ry="2.58" style="fill:#fff;"/><ellipse cx="201.154" cy="113.457" rx="4.74" ry="4.74" style="fill:#fff;"/><ellipse cx="97.964" cy="74.697" rx="4.74" ry="4.74" style="fill:#fff;"/><ellipse cx="657.712" cy="54.89" rx="3.777" ry="3.777" style="fill:#fff;"/><ellipse cx="39.409" cy="19.357" rx="2.58" ry="2.58" style="fill:#fff;"/><ellipse cx="265.619" cy="63.507" rx="1.29" ry="1.29" style="fill:#fff;"/><ellipse cx="338.76" cy="34.992" rx="1.29" ry="1.29" style="fill:#fff;"/><ellipse cx="220.95" cy="24.951" rx="1.29" ry="1.29" style="fill:#fff;"/><ellipse cx="372.979" cy="20.157" rx="2.58" ry="2.58" style="fill:#fff;"/><ellipse cx="138.58" cy="11.517" rx="2.58" ry="2.58" style="fill:#fff;"/><ellipse cx="492.597" cy="36.7" rx="2.58" ry="2.58" style="fill:#fff;"/><ellipse cx="392.657" cy="172.317" rx="2.58" ry="2.58" style="fill:#fff;"/><ellipse cx="568.923" cy="214.619" rx="0.809" ry="0.809" style="fill:#fff;"/><ellipse cx="552.665" cy="91.516" rx="2.58" ry="2.58" style="fill:#fff;"/></g><g id="stars2"><ellipse cx="335.766" cy="74.232" rx="1.29" ry="1.29" style="fill:#fff;"/><ellipse cx="393.361" cy="89.592" rx="1.29" ry="1.29" style="fill:#fff;"/><ellipse cx="465.354" cy="161.592" rx="1.29" ry="1.29" style="fill:#fff;"/><ellipse cx="573.825" cy="151.992" rx="1.29" ry="1.29" style="fill:#fff;"/><ellipse cx="673.976" cy="116.802" rx="1.29" ry="1.29" style="fill:#fff;"/><ellipse cx="741.17" cy="62.082" rx="1.29" ry="1.29" style="fill:#fff;"/><ellipse cx="729.971" cy="58.242" rx="1.29" ry="1.29" style="fill:#fff;"/><ellipse cx="692.214" cy="58.562" rx="1.29" ry="1.29" style="fill:#fff;"/><ellipse cx="566.785" cy="77.762" rx="1.29" ry="1.29" style="fill:#fff;"/><ellipse cx="340.926" cy="207.682" rx="1.29" ry="1.29" style="fill:#fff;"/><ellipse cx="365.883" cy="211.522" rx="1.29" ry="1.29" style="fill:#fff;"/><ellipse cx="139.344" cy="189.762" rx="1.29" ry="1.29" style="fill:#fff;"/><ellipse cx="107.986" cy="133.442" rx="1.29" ry="1.29" style="fill:#fff;"/><ellipse cx="122.705" cy="125.832" rx="1.29" ry="1.29" style="fill:#fff;"/><ellipse cx="335.766" cy="74.232" rx="1.29" ry="1.29" style="fill:#fff;"/><ellipse cx="337.056" cy="121.962" rx="2.58" ry="2.58" style="fill:#fff;"/><ellipse cx="129.075" cy="203.882" rx="2.58" ry="2.58" style="fill:#fff;"/><ellipse cx="276.581" cy="116.802" rx="2.58" ry="2.58" style="fill:#fff;"/><ellipse cx="253.711" cy="111.944" rx="1.89" ry="1.89" style="fill:#fff;"/><ellipse cx="247.784" cy="159.012" rx="2.58" ry="2.58" style="fill:#fff;"/><ellipse cx="309.379" cy="149.803" rx="2.276" ry="2.276" style="fill:#fff;"/><ellipse cx="146.033" cy="71.362" rx="2.58" ry="2.58" style="fill:#fff;"/><ellipse cx="372.243" cy="115.512" rx="1.29" ry="1.29" style="fill:#fff;"/><ellipse cx="442.956" cy="89.272" rx="1.29" ry="1.29" style="fill:#fff;"/><ellipse cx="335.766" cy="74.232" rx="1.29" ry="1.29" style="fill:#fff;"/><ellipse cx="479.603" cy="72.162" rx="2.58" ry="2.58" style="fill:#fff;"/><ellipse cx="245.204" cy="63.522" rx="2.58" ry="2.58" style="fill:#fff;"/><ellipse cx="620.53" cy="39.522" rx="2.58" ry="2.58" style="fill:#fff;"/><ellipse cx="513.241" cy="203.056" rx="2.17" ry="2.17" style="fill:#fff;"/><ellipse cx="668.226" cy="277.122" rx="2.58" ry="2.58" style="fill:#fff;"/><ellipse cx="658.627" cy="163.842" rx="2.58" ry="2.58" style="fill:#fff;"/></g><g id="stars3"><ellipse cx="456.442" cy="236.692" rx="1.29" ry="1.29" style="fill:#fff;"/><ellipse cx="432.812" cy="237.902" rx="1.29" ry="1.29" style="fill:#fff;"/><ellipse cx="360.819" cy="165.902" rx="1.29" ry="1.29" style="fill:#fff;"/><ellipse cx="252.349" cy="175.502" rx="1.29" ry="1.29" style="fill:#fff;"/><ellipse cx="152.198" cy="210.692" rx="1.29" ry="1.29" style="fill:#fff;"/><ellipse cx="85.004" cy="265.412" rx="1.29" ry="1.29" style="fill:#fff;"/><ellipse cx="96.203" cy="269.252" rx="1.29" ry="1.29" style="fill:#fff;"/><ellipse cx="133.959" cy="268.932" rx="1.29" ry="1.29" style="fill:#fff;"/><ellipse cx="259.388" cy="249.732" rx="1.29" ry="1.29" style="fill:#fff;"/><ellipse cx="485.248" cy="119.812" rx="1.29" ry="1.29" style="fill:#fff;"/><ellipse cx="460.29" cy="115.972" rx="1.29" ry="1.29" style="fill:#fff;"/><ellipse cx="686.83" cy="137.732" rx="1.29" ry="1.29" style="fill:#fff;"/><ellipse cx="719.005" cy="171.972" rx="1.29" ry="1.29" style="fill:#fff;"/><ellipse cx="704.534" cy="180.235" rx="1.29" ry="1.29" style="fill:#fff;"/><ellipse cx="623.352" cy="133.594" rx="1.29" ry="1.29" style="fill:#fff;"/><ellipse cx="600.407" cy="123.125" rx="1.29" ry="1.29" style="fill:#fff;"/><ellipse cx="500.05" cy="245.743" rx="1.29" ry="1.29" style="fill:#fff;"/><ellipse cx="489.117" cy="205.532" rx="2.58" ry="2.58" style="fill:#fff;"/><ellipse cx="697.099" cy="123.612" rx="2.58" ry="2.58" style="fill:#fff;"/><ellipse cx="549.592" cy="210.692" rx="2.58" ry="2.58" style="fill:#fff;"/><ellipse cx="751.239" cy="162.464" rx="2.58" ry="2.58" style="fill:#fff;"/><ellipse cx="750.957" cy="126.665" rx="1.966" ry="1.966" style="fill:#fff;"/><ellipse cx="578.389" cy="168.482" rx="2.58" ry="2.58" style="fill:#fff;"/><ellipse cx="518.395" cy="162.032" rx="4.74" ry="4.74" style="fill:#fff;"/><ellipse cx="622.062" cy="180.235" rx="3.345" ry="3.345" style="fill:#fff;"/><ellipse cx="61.956" cy="198.212" rx="4.74" ry="4.74" style="fill:#fff;"/><ellipse cx="680.14" cy="256.132" rx="2.58" ry="2.58" style="fill:#fff;"/><ellipse cx="453.93" cy="211.982" rx="1.29" ry="1.29" style="fill:#fff;"/><ellipse cx="383.217" cy="238.222" rx="1.29" ry="1.29" style="fill:#fff;"/><ellipse cx="475.629" cy="248.323" rx="1.29" ry="1.29" style="fill:#fff;"/><ellipse cx="346.57" cy="255.332" rx="2.58" ry="2.58" style="fill:#fff;"/><ellipse cx="580.969" cy="263.972" rx="2.58" ry="2.58" style="fill:#fff;"/><ellipse cx="198.807" cy="218.158" rx="2.58" ry="2.58" style="fill:#fff;"/><ellipse cx="326.892" cy="103.172" rx="2.58" ry="2.58" style="fill:#fff;"/><ellipse cx="157.947" cy="50.372" rx="2.58" ry="2.58" style="fill:#fff;"/><ellipse cx="167.546" cy="163.652" rx="2.58" ry="2.58" style="fill:#fff;"/></g><g><path d="M64.227,210.652l34.125,16.08l8.603,-36.733l-15.296,-4.384l-21.364,10.326l-6.068,14.711Z" style="fill:#e05f54;"/><g><path d="M98.352,226.732l-3.28,-30.99l-18.963,9.166l22.243,21.824Z" style="fill:#ff897e;"/><path d="M95.072,195.742l-14.095,-4.964l4.614,9.547l9.481,-4.583Z" style="fill:#ffbab4;"/><path d="M71.495,195.361l14.096,4.964l-4.614,-9.547l-9.482,4.583Z" style="fill:#ff786b;"/></g></g><g><path d="M463.821,335.182l-28.279,-13.326l-7.129,30.44l12.676,3.633l17.704,-8.557l5.028,-12.19Z" style="fill:#e05f54;"/><g><path d="M435.542,321.856l2.718,25.681l15.715,-7.596l-18.433,-18.085Z" style="fill:#ff897e;"/><path d="M438.26,347.537l11.681,4.114l-3.824,-7.912l-7.857,3.798Z" style="fill:#ffbab4;"/><path d="M457.798,347.853l-11.681,-4.114l3.824,7.912l7.857,-3.798Z" style="fill:#ff786b;"/></g></g><g><path d="M487.388,338.616l-3.85,-22.396l-21.164,8.274l3.124,9.075l12.507,7.061l9.383,-2.014Z" style="fill:#e05f54;"/><g><path d="M483.538,316.22l-14.208,12.201l11.102,6.268l3.106,-18.469Z" style="fill:#ff897e;"/><path d="M469.33,328.421l2.421,8.678l3.13,-5.544l-5.551,-3.134Z" style="fill:#ffbab4;"/><path d="M477.302,340.233l-2.421,-8.678l-3.13,5.544l5.551,3.134Z" style="fill:#ff786b;"/></g></g><g><path d="M501.622,200.054l18.376,46.616l7.789,-20.622l7.127,-0.159l-7.789,25.381l7.789,2.221l0.497,10.471l-9.281,-1.428l0.166,19.512l6.132,2.697l0.497,3.965l-21.047,0l0,-3.807l7.623,-3.49l-0.497,-22.049l-1.823,-0.476l0.207,-5.552l-5.718,-1.19l-0.58,-3.393l2.818,0l0.083,2.322l2.237,0.238l-17.215,-51.894l2.609,0.637Z" style="fill:#8e5551;"/><path d="M503.28,190.593l27.843,35.216" style="fill:none;stroke-width:1.95px;stroke:#8e5551;"/><path d="M504.151,187.976l-15.165,32.599" style="fill:none;stroke-width:1.3px;stroke:#8e5551;"/><path d="M502.261,191.664l-0.696,8.526l-7.259,-2.554l7.955,-5.972Z" style="fill:none;stroke-width:0.98px;stroke:#8e5551;"/><path d="M488.986,220.575l5.32,-22.367l-5.32,22.367Z" style="fill:none;stroke-width:0.98px;stroke:#8e5551;"/><path d="M501.366,200.19l-12.38,20.385" style="fill:none;stroke-width:0.98px;stroke:#8e5551;"/><path d="M533.186,225.809l-2.063,-7.709l-16.134,13.992" style="fill:none;stroke-width:1.3px;stroke:#8e5551;"/><path d="M531.794,221.717l-15.612,13.611" style="fill:none;stroke-width:0.52px;stroke:#8e5551;"/><path d="M527.916,228.106l-13.486,4.521" style="fill:none;stroke-width:0.52px;stroke:#8e5551;"/><path d="M526.424,232.478l-11.435,3.326l16.805,-17.704" style="fill:none;stroke-width:0.52px;stroke:#8e5551;"/><path d="M531.11,217.612l3.459,1.76l5.975,9.15l2.77,1.013c1.474,1.865 1.06,3.222 -0.71,4.215c-2.29,-0.56 -4.678,-1.374 -7.193,-2.515l0.659,-2.713l-2.884,-1.808l-2.076,-9.102Z" style="fill:#8e5551;"/><path d="M487.968,220.534l-3.3,3.878l5.96,-1.218l0,-6.457l-2.66,3.797Z" style="fill:#8e5551;"/><rect x="486.692" y="233.157" width="3.262" height="1.675" style="fill:#8e5551;"/><rect x="487.648" y="234.832" width="1.339" height="1.713" style="fill:#8e5551;"/><path d="M488.986,233.157l0,-10.127" style="fill:none;stroke-width:0.36px;stroke:#8e5551;"/><path d="M487.648,233.157l0,-10.127" style="fill:none;stroke-width:0.36px;stroke:#8e5551;"/><path d="M500.911,194.915l0.665,-4.804l2.824,-2.889l1.526,1.357l-1.775,1.876l-3.24,4.46Z" style="fill:#8e5551;"/><rect x="531.946" y="250.947" width="2.072" height="2.855" style="fill:#8e5551;"/></g><g><path d="M590.592,173.845l-23.809,60.397l-10.092,-26.718l-9.233,-0.206l10.092,32.885l-10.092,2.877l-0.644,13.566l12.024,-1.85l-0.214,25.28l-7.945,3.494l-0.644,5.138l27.27,0l0,-4.932l-9.878,-4.522l0.644,-28.568l2.362,-0.617l-0.268,-7.193l7.408,-1.542l0.751,-4.395l-3.65,0l-0.107,3.008l-2.899,0.308l22.304,-67.236l-3.38,0.826Z" style="fill:#8e5551;"/><path d="M588.443,161.587l-36.073,45.627" style="fill:none;stroke-width:2.53px;stroke:#8e5551;"/><path d="M587.316,158.196l19.647,42.236" style="fill:none;stroke-width:1.69px;stroke:#8e5551;"/><path d="M589.764,162.975l0.902,11.046l9.404,-3.308l-10.306,-7.738Z" style="fill:none;stroke-width:1.27px;stroke:#8e5551;"/><path d="M606.963,200.432l-6.893,-28.979l6.893,28.979Z" style="fill:none;stroke-width:1.27px;stroke:#8e5551;"/><path d="M590.923,174.021l16.04,26.411" style="fill:none;stroke-width:1.26px;stroke:#8e5551;"/><path d="M549.697,207.214l2.673,-9.988l20.903,18.128" style="fill:none;stroke-width:1.69px;stroke:#8e5551;"/><path d="M551.5,201.912l20.227,17.635" style="fill:none;stroke-width:0.67px;stroke:#8e5551;"/><path d="M556.525,210.19l17.473,5.857" style="fill:none;stroke-width:0.67px;stroke:#8e5551;"/><path d="M558.457,215.855l14.816,4.308l-21.773,-22.937" style="fill:none;stroke-width:0.67px;stroke:#8e5551;"/><path d="M552.386,196.594l-4.482,2.279l-7.741,11.856l-3.589,1.313c-1.91,2.415 -1.373,4.174 0.92,5.461c2.967,-0.726 6.061,-1.78 9.32,-3.259l-0.854,-3.515l3.737,-2.343l2.689,-11.792Z" style="fill:#8e5551;"/><path d="M608.282,200.379l4.277,5.025l-7.723,-1.578l0,-8.366l3.446,4.919Z" style="fill:#8e5551;"/><rect x="605.71" y="216.734" width="4.226" height="2.17" style="fill:#8e5551;"/><rect x="606.963" y="218.904" width="1.734" height="2.22" style="fill:#8e5551;"/><path d="M606.963,216.734l0,-13.121" style="fill:none;stroke-width:0.46px;stroke:#8e5551;"/><path d="M608.697,216.734l0,-13.121" style="fill:none;stroke-width:0.46px;stroke:#8e5551;"/><path d="M591.513,167.187l-0.862,-6.224l-3.658,-3.744l-1.978,1.759l2.301,2.43l4.197,5.779Z" style="fill:#8e5551;"/><rect x="548.62" y="239.783" width="2.684" height="3.7" style="fill:#8e5551;"/></g><g><path d="M600.32,210.624l-15.519,40.712l-6.578,-18.01l-6.018,-0.139l6.578,22.167l-6.578,1.94l-0.42,9.144l7.838,-1.246l-0.14,17.04l-5.179,2.355l-0.419,3.464l17.774,0l0,-3.325l-6.438,-3.048l0.42,-19.257l1.539,-0.416l-0.175,-4.849l4.829,-1.039l0.49,-2.963l-2.38,0l-0.07,2.028l-1.889,0.208l14.538,-45.323l-2.203,0.557Z" style="fill:#8e5551;"/><path d="M598.919,202.361l-23.512,30.757" style="fill:none;stroke-width:1.68px;stroke:#8e5551;"/><path d="M598.184,200.075l12.806,28.471" style="fill:none;stroke-width:1.12px;stroke:#8e5551;"/><path d="M599.78,203.296l0.588,7.447l6.13,-2.23l-6.718,-5.217Z" style="fill:none;stroke-width:0.84px;stroke:#8e5551;"/><path d="M610.99,228.546l-4.492,-19.535l4.492,19.535Z" style="fill:none;stroke-width:0.84px;stroke:#8e5551;"/><path d="M600.535,210.743l10.455,17.803" style="fill:none;stroke-width:0.84px;stroke:#8e5551;"/><path d="M573.664,233.118l1.743,-6.733l13.624,12.219" style="fill:none;stroke-width:1.12px;stroke:#8e5551;"/><path d="M574.84,229.544l13.184,11.886" style="fill:none;stroke-width:0.45px;stroke:#8e5551;"/><path d="M578.115,235.123l11.389,3.949" style="fill:none;stroke-width:0.45px;stroke:#8e5551;"/><path d="M579.374,238.942l9.657,2.904l-14.191,-15.461" style="fill:none;stroke-width:0.45px;stroke:#8e5551;"/><path d="M575.417,225.959l-2.921,1.536l-5.046,7.992l-2.339,0.885c-1.245,1.628 -0.895,2.813 0.6,3.681c1.934,-0.49 3.95,-1.2 6.074,-2.197l-0.556,-2.369l2.435,-1.579l1.753,-7.949Z" style="fill:#8e5551;"/><path d="M611.85,228.51l2.787,3.387l-5.033,-1.064l0,-5.639l2.246,3.316Z" style="fill:#8e5551;"/><rect x="610.173" y="239.534" width="2.754" height="1.463" style="fill:#8e5551;"/><rect x="610.99" y="240.997" width="1.13" height="1.496" style="fill:#8e5551;"/><path d="M610.99,239.534l0,-8.844" style="fill:none;stroke-width:0.31px;stroke:#8e5551;"/><path d="M612.12,239.534l0,-8.844" style="fill:none;stroke-width:0.31px;stroke:#8e5551;"/><path d="M600.92,206.136l-0.562,-4.196l-2.384,-2.523l-1.29,1.185l1.5,1.638l2.736,3.896Z" style="fill:#8e5551;"/><rect x="572.962" y="255.071" width="1.749" height="2.494" style="fill:#8e5551;"/></g><g><g><path d="M699.398,257.801l0,-23.96l9.238,-11.873l9.238,11.873l9.238,-11.873l8.822,11.338l8.527,-11.338l8.93,11.873l8.93,-11.873l8.645,11.495l8.645,-11.495l8.93,11.873l8.929,-11.873l8.93,11.873l0,23.96l-107.002,0Z" style="fill:#8e5551;"/></g><g><g><rect x="637.497" y="222.502" width="63.134" height="35.833" style="fill:#8e5551;"/><path d="M702.072,223.943l-66.016,0l10.872,-20.609l44.272,0l10.872,20.609Z" style="fill:#8e5551;"/></g><g><path d="M681.921,246.107l-25.714,0l5.334,-11.377l14.637,0l5.743,11.377Z" style="fill:#7a4743;"/><path d="M676.387,239.885l-14.646,0l0,-41.011l7.323,-13.136l7.323,13.136l0,41.011Z" style="fill:#7a4743;"/></g></g></g><path d="M806.4,308.177l-421.732,-8.041l26.8,-13.692l25.014,3.388l102.734,-2.68l69.681,-20.996l44.228,-13.151l57.997,4.02l34.485,-6.254l31.685,6.254l29.108,-8.29" style="fill:#e05f54;"/><g><g><g><path d="M281.564,163.981l17.802,-6.021l10.301,2.274l-3.077,3.747l0.134,6.823l-25.284,1.739l0.124,-8.562Z" style="fill:#7a4743;"/><g><path d="M271.155,167.407l10.418,-3.426l0.402,6.689l8.561,-3.389l0,2.854l5.619,-1.605l3.746,0l0,-1.249l3.077,0l0.134,1.784l6.02,0l0,10.636l4.147,0l0,2.075l5.351,0l0,68.5l-43.997,0l-0.206,-76.034l-4.693,-4.776l1.421,-2.059Z" style="fill:#8e5551;"/><path d="M296.183,168.541l0,81.735l22.447,0l0,-68.475l-5.363,0l0,-2.055l-4.192,0l0,-10.768l-6,0l0,-1.697l-3.123,0l0,1.244l-3.769,0.016Z" style="fill:#98716f;"/></g></g><path d="M261.463,194.719l7.112,0l0,-4.131l-7.118,0l0.006,4.131ZM261.503,221.048l0.044,29.228l-11.261,0l-6.719,-79.48l5.137,-39.897l12.682,13.325l0.065,42.949l7.124,0l0,-8.349l-1.851,0l0,-9.793l4.794,-1.75l0,2.765l1.159,0l0,1.962l2.355,0l0,78.268l-6.457,0l0,-29.228l-7.072,0Z" style="fill:#7a4743;"/></g><path d="M246.557,129.76l2.325,0l0,39.838l1.404,0l0,80.678l-29.498,0l0.084,-4.115l0,-75.761l3.813,0l0,-16.055l-1.99,0l0,-19.167l5.217,0l0,-5.418l7.625,0l0,-2.273l11.02,0l0,2.273Z" style="fill:#8e5551;"/></g><path d="M0.073,265.909l0,-57.154l79.213,19.274l50.734,-2.58l64.345,20.215l94.868,2.581l68.47,-6.022l24.909,18.338l122.615,0.392l6.599,4.956l-511.753,0Z" style="fill:#8e5551;"/><path d="M0.073,281.393l0,-49.248l13.409,1.275l35.84,9.234l49.625,9.892l42.535,11.183l68.529,2.18l27.569,15.484l-237.507,0Z" style="fill:#e05f54;"/><g><g><path d="M366.218,320.406l-163.499,0l22.929,30.369l101.556,0l39.014,-30.369Z" style="fill:#8e5551;"/><path d="M297.072,322.12l0,-86.034" style="fill:none;stroke-width:4px;stroke:#8e5551;"/><path d="M299.413,235.935l0,72.573l47.401,5.56c-9.046,-28.363 -23.178,-59.423 -47.401,-78.133Z" style="fill:#fff;"/><path d="M294.417,235.935l-0.244,71.832l-17.312,6.301l17.556,-78.133Z" style="fill:#fff;"/></g><g><g><path d="M256.122,314.327l-20.257,-25.039l-20.257,25.039l10.128,9.052l20.257,0l10.129,-9.052Z" style="fill:#e05f54;"/><g><path d="M235.865,289.288l-8.991,25.039l17.981,0l-8.99,-25.039Z" style="fill:#ff897e;"/><path d="M226.874,314.327l8.991,9.052l0,-9.052l-8.991,0Z" style="fill:#ffbab4;"/><path d="M244.855,323.379l-8.99,-9.052l0,9.052l8.99,0Z" style="fill:#ff786b;"/></g></g><g><path d="M230.675,302.493l-23.765,-2.621l2.398,23.79l10.071,-0.518l10.683,-10.584l0.613,-10.067Z" style="fill:#e05f54;"/><g><path d="M206.91,299.872l8.34,17.903l9.483,-9.395l-17.823,-8.508Z" style="fill:#ff897e;"/><path d="M215.25,317.775l9.47,0.077l-4.729,-4.774l-4.741,4.697Z" style="fill:#ffbab4;"/><path d="M229.462,313.154l-9.471,-0.076l4.729,4.774l4.742,-4.698Z" style="fill:#ff786b;"/></g></g><g><path d="M265.97,311.111l-23.765,2.62l2.398,-23.79l10.071,0.518l10.683,10.585l0.613,10.067Z" style="fill:#e05f54;"/><g><path d="M242.205,313.731l8.34,-17.903l9.483,9.396l-17.823,8.507Z" style="fill:#ff897e;"/><path d="M250.545,295.828l9.471,-0.076l-4.73,4.774l-4.741,-4.698Z" style="fill:#ffbab4;"/><path d="M264.757,300.449l-9.471,0.077l4.73,-4.774l4.741,4.697Z" style="fill:#ff786b;"/></g></g><g><path d="M272.407,322.989l-23.764,2.621l2.397,-23.79l10.071,0.518l10.684,10.585l0.612,10.066Z" style="fill:#e05f54;"/><g><path d="M248.643,325.61l8.339,-17.903l9.483,9.396l-17.822,8.507Z" style="fill:#ff897e;"/><path d="M256.982,307.707l9.471,-0.076l-4.729,4.774l-4.742,-4.698Z" style="fill:#ffbab4;"/><path d="M271.194,312.328l-9.47,0.077l4.729,-4.774l4.741,4.697Z" style="fill:#ff786b;"/></g></g></g></g><g><path d="M476.037,271.026l-41.508,23.199l-14.022,-45.44l18.852,-6.847l27.764,11.12l8.914,17.968Z" style="fill:#e05f54;"/><g><path d="M434.529,294.225l1.421,-39.255l24.645,9.871l-26.066,29.384Z" style="fill:#ff897e;"/><path d="M435.95,254.97l17.291,-7.472l-4.969,12.408l-12.322,-4.936Z" style="fill:#ffbab4;"/><path d="M465.563,252.434l-17.291,7.472l4.969,-12.408l12.322,4.936Z" style="fill:#ff786b;"/></g></g><path d="M806.327,331.659l-47.394,-4.098l-46.019,5.149l-36.382,-5.149l-42.33,16.491l-29.69,2.483l-7.761,4.24l209.576,0l0,-19.116Z" style="fill:#8e5551;"/><path d="M0,297.91l43.461,13.392l29.442,-6.222l26.516,15.326l-99.419,0l0,-22.496Z" style="fill:#e05f54;"/></g></g><defs><linearGradient id="_Linear1" x1="0" y1="0" x2="1" y2="0" gradientUnits="userSpaceOnUse" gradientTransform="matrix(2.87974,230.069,-285.094,2.32393,781.85,16.8244)"><stop offset="0%" style="stop-color:#4193a3;stop-opacity:1"/><stop offset="56%" style="stop-color:#479ea9;stop-opacity:1"/><stop offset="100%" style="stop-color:#61c8c3;stop-opacity:1"/></linearGradient></defs></svg>