<?xml version="1.0" standalone="no"?><!DOCTYPE svg PUBLIC "-//W3C//DTD SVG 1.1//EN" "http://www.w3.org/Graphics/SVG/1.1/DTD/svg11.dtd"><svg width="100%" height="100%" viewBox="0 0 76 54" version="1.1" xmlns="http://www.w3.org/2000/svg" xmlns:xlink="http://www.w3.org/1999/xlink" xml:space="preserve" style="fill-rule:evenodd;clip-rule:evenodd;stroke-linejoin:round;stroke-miterlimit:1.41421;"><g><g><g><path d="M21.48,13.773c0.05,0.017 0.05,0.017 0.098,0.04l1.081,0.596c0.056,-0.031 0.112,-0.061 0.169,-0.092c0.05,-0.026 0.1,-0.052 0.151,-0.077c0.265,-0.133 0.537,-0.252 0.815,-0.357c0.279,-0.104 0.563,-0.193 0.851,-0.268l0.015,-0.004l0.321,-1.141l0.018,-0.051c0.02,-0.044 0.024,-0.056 0.052,-0.095c0.053,-0.074 0.127,-0.131 0.211,-0.164c0.045,-0.018 0.058,-0.018 0.105,-0.027c0.072,-0.011 0.144,-0.02 0.217,-0.029c0.421,-0.05 0.845,-0.074 1.27,-0.07c0.424,0.004 0.848,0.035 1.268,0.093l0.043,0.006c0.047,0.009 0.06,0.009 0.105,0.027c0.101,0.039 0.187,0.114 0.24,0.21c0.023,0.042 0.025,0.054 0.041,0.1l0.321,1.141c0.06,0.015 0.12,0.031 0.18,0.048c0.054,0.015 0.109,0.031 0.163,0.047c0.284,0.087 0.564,0.187 0.838,0.303c0.273,0.115 0.54,0.246 0.8,0.389l0.02,0.011l1.081,-0.596l0.048,-0.023c0.044,-0.015 0.055,-0.021 0.101,-0.029c0.087,-0.015 0.177,-0.004 0.259,0.03c0.043,0.018 0.052,0.026 0.092,0.051c0.058,0.042 0.117,0.085 0.174,0.128c0.346,0.26 0.675,0.542 0.983,0.846c0.286,0.283 0.553,0.585 0.801,0.902l0.025,0.033c0.029,0.041 0.038,0.051 0.058,0.096c0.046,0.103 0.053,0.221 0.02,0.329c-0.015,0.048 -0.023,0.058 -0.045,0.102l-0.607,1.018c0.028,0.047 0.055,0.094 0.083,0.142c0.027,0.048 0.054,0.096 0.081,0.145c0.137,0.256 0.262,0.519 0.372,0.788c0.109,0.269 0.202,0.544 0.28,0.823l0.002,0.006l1.195,0.311l0.051,0.017c0.044,0.02 0.057,0.024 0.097,0.051c0.075,0.052 0.134,0.126 0.168,0.211c0.018,0.045 0.019,0.057 0.029,0.105c0.008,0.055 0.016,0.111 0.024,0.167c0.054,0.407 0.081,0.818 0.079,1.229c-0.002,0.425 -0.035,0.849 -0.097,1.27l-0.006,0.041c-0.01,0.047 -0.011,0.06 -0.029,0.105c-0.041,0.102 -0.118,0.187 -0.215,0.239c-0.043,0.022 -0.055,0.024 -0.101,0.039l-1.195,0.312c-0.015,0.055 -0.032,0.11 -0.048,0.165c-0.016,0.053 -0.033,0.105 -0.05,0.158c-0.082,0.249 -0.175,0.495 -0.282,0.735c-0.117,0.266 -0.251,0.524 -0.397,0.776l-0.021,0.036l-0.02,0.033l0.607,1.018c0.022,0.044 0.03,0.055 0.045,0.103c0.033,0.107 0.026,0.225 -0.02,0.328c-0.02,0.046 -0.029,0.055 -0.058,0.096c-0.043,0.057 -0.088,0.113 -0.132,0.169c-0.263,0.323 -0.546,0.63 -0.849,0.916c-0.305,0.288 -0.628,0.554 -0.968,0.799l-0.034,0.025c-0.04,0.025 -0.049,0.033 -0.092,0.052c-0.098,0.041 -0.209,0.047 -0.31,0.018c-0.046,-0.013 -0.056,-0.02 -0.098,-0.04l-1.081,-0.597c-0.056,0.031 -0.113,0.062 -0.169,0.092c-0.05,0.026 -0.1,0.052 -0.151,0.078c-0.278,0.139 -0.563,0.263 -0.855,0.371c-0.266,0.098 -0.536,0.182 -0.811,0.254l-0.015,0.004l-0.321,1.141l-0.018,0.051c-0.021,0.043 -0.024,0.055 -0.052,0.095c-0.053,0.073 -0.127,0.131 -0.211,0.164c-0.045,0.017 -0.058,0.018 -0.105,0.027c-0.072,0.01 -0.145,0.02 -0.217,0.028c-0.421,0.05 -0.845,0.075 -1.27,0.071c-0.424,-0.004 -0.848,-0.036 -1.268,-0.093l-0.043,-0.006c-0.047,-0.009 -0.06,-0.01 -0.105,-0.027c-0.101,-0.04 -0.187,-0.115 -0.24,-0.21c-0.023,-0.042 -0.025,-0.055 -0.041,-0.1l-0.321,-1.141c-0.06,-0.016 -0.12,-0.032 -0.18,-0.048c-0.054,-0.016 -0.109,-0.032 -0.163,-0.048c-0.284,-0.087 -0.564,-0.187 -0.838,-0.302c-0.273,-0.116 -0.54,-0.246 -0.8,-0.389l-0.02,-0.012l-1.081,0.597l-0.048,0.023c-0.044,0.015 -0.055,0.021 -0.101,0.029c-0.087,0.014 -0.178,0.004 -0.259,-0.03c-0.043,-0.019 -0.052,-0.027 -0.092,-0.052c-0.059,-0.042 -0.117,-0.084 -0.174,-0.127c-0.323,-0.243 -0.632,-0.505 -0.921,-0.786c-0.31,-0.301 -0.597,-0.623 -0.863,-0.962l-0.026,-0.034c-0.028,-0.041 -0.037,-0.05 -0.057,-0.096c-0.046,-0.103 -0.053,-0.221 -0.02,-0.328c0.015,-0.048 0.023,-0.059 0.045,-0.103l0.607,-1.018c-0.028,-0.047 -0.055,-0.094 -0.083,-0.141c-0.027,-0.048 -0.054,-0.097 -0.081,-0.146c-0.144,-0.268 -0.274,-0.543 -0.387,-0.826c-0.103,-0.257 -0.19,-0.519 -0.265,-0.784l-0.002,-0.006l-1.195,-0.312l-0.052,-0.017c-0.044,-0.02 -0.056,-0.023 -0.096,-0.051c-0.075,-0.052 -0.134,-0.125 -0.168,-0.21c-0.018,-0.045 -0.019,-0.058 -0.029,-0.105c-0.008,-0.056 -0.016,-0.112 -0.024,-0.168c-0.054,-0.407 -0.081,-0.817 -0.079,-1.228c0.002,-0.425 0.035,-0.85 0.097,-1.27l0.006,-0.041c0.01,-0.048 0.011,-0.06 0.029,-0.106c0.041,-0.101 0.118,-0.187 0.215,-0.238c0.043,-0.023 0.055,-0.025 0.101,-0.04l1.195,-0.311c0.015,-0.055 0.031,-0.11 0.048,-0.165c0.016,-0.053 0.033,-0.106 0.05,-0.158c0.09,-0.276 0.195,-0.547 0.316,-0.811c0.109,-0.239 0.231,-0.473 0.363,-0.7l0.021,-0.036l0.02,-0.034l-0.607,-1.018c-0.022,-0.044 -0.03,-0.054 -0.045,-0.102c-0.033,-0.108 -0.026,-0.226 0.02,-0.329c0.02,-0.045 0.029,-0.055 0.057,-0.096c0.044,-0.056 0.088,-0.112 0.133,-0.168c0.263,-0.324 0.546,-0.63 0.849,-0.917c0.305,-0.287 0.628,-0.553 0.968,-0.799l0.034,-0.025c0.04,-0.025 0.049,-0.033 0.092,-0.051c0.065,-0.027 0.136,-0.04 0.206,-0.036c0.018,0.001 0.035,0.004 0.053,0.006c0.017,0.004 0.034,0.008 0.051,0.012ZM26.726,12.971c-0.305,0.002 -0.609,0.019 -0.912,0.051l-0.015,0.001l-0.312,1.107l-0.018,0.053c-0.022,0.045 -0.025,0.057 -0.055,0.097c-0.044,0.061 -0.103,0.11 -0.17,0.143c-0.045,0.022 -0.058,0.024 -0.105,0.037c-0.063,0.014 -0.124,0.029 -0.186,0.044c-0.367,0.092 -0.726,0.209 -1.075,0.354c-0.336,0.14 -0.66,0.305 -0.972,0.492l-0.049,0.025c-0.045,0.018 -0.055,0.024 -0.103,0.033c-0.071,0.014 -0.146,0.011 -0.215,-0.008c-0.047,-0.013 -0.057,-0.021 -0.101,-0.041l-1.05,-0.58c-0.325,0.249 -0.632,0.521 -0.917,0.814c-0.144,0.148 -0.283,0.302 -0.416,0.46l-0.021,0.025l0.587,0.984l0.027,0.051c0.017,0.049 0.024,0.06 0.033,0.111c0.012,0.076 0.006,0.155 -0.019,0.229c-0.016,0.049 -0.025,0.059 -0.05,0.104c-0.034,0.051 -0.067,0.104 -0.099,0.156c-0.191,0.312 -0.358,0.638 -0.497,0.976c-0.134,0.326 -0.242,0.662 -0.324,1.005l-0.017,0.054c-0.02,0.045 -0.023,0.058 -0.051,0.099c-0.042,0.062 -0.099,0.114 -0.165,0.149c-0.044,0.024 -0.057,0.026 -0.105,0.042l-1.157,0.301c-0.034,0.302 -0.052,0.605 -0.052,0.909c0,0.304 0.018,0.607 0.052,0.909l1.157,0.302c0.048,0.015 0.061,0.017 0.105,0.041c0.082,0.045 0.15,0.114 0.193,0.198c0.023,0.044 0.025,0.057 0.04,0.105c0.014,0.059 0.029,0.118 0.045,0.177c0.098,0.364 0.224,0.719 0.381,1.061c0.142,0.312 0.308,0.611 0.494,0.899l0.028,0.05c0.02,0.048 0.027,0.059 0.037,0.11c0.016,0.075 0.013,0.155 -0.01,0.229c-0.014,0.049 -0.022,0.06 -0.046,0.106l-0.587,0.984c0.223,0.266 0.461,0.519 0.714,0.756c0.2,0.187 0.408,0.363 0.624,0.53l0.016,0.012l1.05,-0.579l0.049,-0.023c0.046,-0.016 0.057,-0.022 0.105,-0.03c0.071,-0.011 0.145,-0.005 0.215,0.017c0.046,0.014 0.056,0.022 0.099,0.044c0.054,0.033 0.108,0.065 0.163,0.096c0.327,0.185 0.668,0.346 1.019,0.48c0.342,0.13 0.693,0.234 1.051,0.314l0.053,0.016c0.046,0.019 0.059,0.022 0.101,0.049c0.062,0.041 0.115,0.097 0.152,0.162c0.024,0.044 0.026,0.057 0.042,0.104l0.312,1.106c0.638,0.07 1.281,0.068 1.919,0.002l0.015,-0.002l0.311,-1.106l0.019,-0.053c0.022,-0.045 0.025,-0.058 0.055,-0.098c0.044,-0.06 0.103,-0.109 0.17,-0.143c0.045,-0.022 0.058,-0.023 0.105,-0.037c0.062,-0.014 0.124,-0.028 0.186,-0.043c0.391,-0.098 0.774,-0.225 1.144,-0.384c0.311,-0.133 0.613,-0.289 0.903,-0.463l0.049,-0.025c0.045,-0.017 0.055,-0.024 0.103,-0.033c0.071,-0.014 0.146,-0.011 0.215,0.009c0.047,0.013 0.057,0.02 0.101,0.041l1.05,0.579c0.325,-0.249 0.631,-0.521 0.917,-0.814c0.144,-0.148 0.283,-0.301 0.416,-0.46l0.021,-0.024l-0.587,-0.984l-0.027,-0.052c-0.017,-0.048 -0.024,-0.06 -0.033,-0.11c-0.013,-0.077 -0.006,-0.156 0.019,-0.229c0.016,-0.049 0.025,-0.059 0.05,-0.104c0.034,-0.052 0.067,-0.104 0.099,-0.157c0.197,-0.322 0.369,-0.659 0.511,-1.01c0.127,-0.315 0.23,-0.64 0.31,-0.97l0.017,-0.054c0.02,-0.046 0.023,-0.058 0.051,-0.1c0.042,-0.062 0.099,-0.113 0.165,-0.149c0.044,-0.024 0.057,-0.026 0.105,-0.041l1.157,-0.302c0.035,-0.314 0.053,-0.63 0.052,-0.947c-0.002,-0.291 -0.02,-0.581 -0.052,-0.871l-1.157,-0.301c-0.048,-0.016 -0.061,-0.018 -0.105,-0.042c-0.082,-0.044 -0.15,-0.114 -0.194,-0.197c-0.023,-0.044 -0.024,-0.057 -0.039,-0.105c-0.014,-0.059 -0.029,-0.119 -0.045,-0.178c-0.101,-0.375 -0.233,-0.741 -0.396,-1.094c-0.139,-0.3 -0.3,-0.588 -0.479,-0.865l-0.028,-0.051c-0.02,-0.047 -0.027,-0.059 -0.037,-0.109c-0.016,-0.076 -0.013,-0.155 0.009,-0.229c0.015,-0.05 0.023,-0.06 0.047,-0.106l0.587,-0.984c-0.223,-0.267 -0.461,-0.519 -0.714,-0.757c-0.2,-0.186 -0.408,-0.362 -0.624,-0.529l-0.016,-0.013l-1.05,0.58l-0.049,0.023c-0.046,0.016 -0.057,0.022 -0.105,0.029c-0.071,0.012 -0.145,0.006 -0.215,-0.016c-0.046,-0.015 -0.056,-0.022 -0.099,-0.045c-0.054,-0.032 -0.108,-0.064 -0.163,-0.095c-0.327,-0.185 -0.668,-0.346 -1.019,-0.48c-0.342,-0.131 -0.693,-0.235 -1.051,-0.315l-0.053,-0.015c-0.046,-0.019 -0.059,-0.022 -0.101,-0.05c-0.062,-0.041 -0.115,-0.097 -0.152,-0.162c-0.024,-0.043 -0.026,-0.056 -0.043,-0.103l-0.311,-1.107c-0.256,-0.027 -0.512,-0.043 -0.768,-0.05c-0.08,-0.001 -0.159,-0.002 -0.239,-0.002ZM26.822,17.063c0.201,0.004 0.401,0.018 0.6,0.047c0.42,0.062 0.831,0.184 1.215,0.363c0.514,0.238 0.98,0.576 1.363,0.992c0.347,0.376 0.626,0.815 0.814,1.291c0.161,0.407 0.255,0.839 0.278,1.276c0.021,0.391 -0.015,0.784 -0.106,1.165c-0.077,0.318 -0.192,0.627 -0.342,0.918c-0.282,0.545 -0.686,1.024 -1.17,1.4c-0.341,0.264 -0.722,0.477 -1.126,0.631c-0.504,0.191 -1.043,0.288 -1.582,0.288c-0.539,0 -1.078,-0.097 -1.582,-0.289c-0.436,-0.165 -0.845,-0.4 -1.206,-0.694c-0.449,-0.365 -0.824,-0.822 -1.09,-1.336c-0.15,-0.291 -0.265,-0.6 -0.342,-0.918c-0.091,-0.381 -0.127,-0.774 -0.106,-1.165c0.023,-0.437 0.117,-0.869 0.278,-1.276c0.188,-0.476 0.467,-0.915 0.813,-1.291c0.384,-0.416 0.85,-0.754 1.364,-0.992c0.384,-0.179 0.795,-0.301 1.215,-0.363c0.199,-0.029 0.399,-0.043 0.6,-0.047c0.056,0 0.056,0 0.112,0ZM26.722,18.001c-0.159,0.002 -0.318,0.014 -0.476,0.037c-0.344,0.051 -0.68,0.153 -0.994,0.303c-0.399,0.191 -0.762,0.46 -1.058,0.789c-0.256,0.285 -0.463,0.614 -0.604,0.971c-0.124,0.312 -0.196,0.645 -0.214,0.981c-0.016,0.3 0.012,0.603 0.082,0.896c0.059,0.245 0.148,0.482 0.263,0.706c0.226,0.437 0.552,0.818 0.944,1.114c0.259,0.196 0.547,0.355 0.852,0.471c0.398,0.151 0.823,0.227 1.249,0.227c0.426,0 0.851,-0.076 1.249,-0.227c0.317,-0.12 0.616,-0.288 0.884,-0.495c0.378,-0.293 0.692,-0.665 0.912,-1.09c0.115,-0.224 0.204,-0.461 0.263,-0.706c0.07,-0.293 0.098,-0.596 0.082,-0.896c-0.018,-0.336 -0.091,-0.668 -0.214,-0.981c-0.141,-0.357 -0.348,-0.686 -0.604,-0.971c-0.296,-0.329 -0.659,-0.598 -1.058,-0.789c-0.314,-0.15 -0.65,-0.252 -0.994,-0.303c-0.158,-0.023 -0.317,-0.035 -0.476,-0.037c-0.044,-0.001 -0.044,-0.001 -0.088,0Z" style="fill:#896864;fill-rule:nonzero;"/><circle cx="30.829" cy="39.846" r="2.16" style="fill:#896864;"/><path d="M3.963,26.27c0.356,1.005 0.813,1.97 1.355,2.885c0.501,0.846 1.075,1.649 1.707,2.402c1.119,1.333 2.419,2.51 3.834,3.521c0.468,0.333 0.947,0.649 1.438,0.947c0.238,0.145 0.48,0.285 0.723,0.422l0.085,0.058c0.024,0.025 0.051,0.047 0.072,0.073c0.089,0.107 0.135,0.245 0.129,0.384c-0.002,0.034 -0.009,0.068 -0.014,0.102l-2.539,10.962c0.045,0.02 0.089,0.041 0.132,0.064l9.016,-8.739l0.071,-0.058c0.026,-0.016 0.051,-0.033 0.079,-0.046c0.083,-0.04 0.176,-0.058 0.267,-0.054c0.031,0.001 0.061,0.008 0.091,0.012c0.094,0.02 0.188,0.039 0.281,0.059c0.719,0.145 1.442,0.265 2.17,0.356c1.56,0.196 3.136,0.265 4.707,0.209c0.212,-0.008 0.425,-0.017 0.637,-0.03c-0.008,0.164 0,0.329 0.022,0.492c0.03,0.214 0.087,0.424 0.169,0.624c-0.263,0.016 -0.525,0.029 -0.788,0.038c-1.631,0.058 -3.267,-0.013 -4.887,-0.216c-0.755,-0.095 -1.505,-0.219 -2.251,-0.37l-8.756,8.487c0.211,0.333 0.332,0.728 0.332,1.15c0,1.192 -0.967,2.16 -2.159,2.16c-1.192,0 -2.16,-0.968 -2.16,-2.16c0,-1.107 0.836,-2.021 1.911,-2.145l2.464,-10.641c-0.08,-0.047 -0.159,-0.094 -0.239,-0.141c-0.074,-0.045 -0.149,-0.09 -0.223,-0.136c-0.27,-0.165 -0.537,-0.335 -0.801,-0.511c-0.494,-0.329 -0.976,-0.677 -1.444,-1.043c-1.387,-1.085 -2.651,-2.33 -3.728,-3.724c-0.619,-0.8 -1.176,-1.648 -1.658,-2.538c-0.463,-0.852 -0.856,-1.742 -1.164,-2.659l0.232,0.022c0.257,0 0.513,-0.05 0.751,-0.147l0.136,-0.071Z" style="fill:#896864;"/><path d="M3.063,23.454l0.027,0l0.177,0.021l0.044,0.333c0.093,0.523 0.213,1.042 0.368,1.548c-0.063,0.048 -0.133,0.087 -0.207,0.117c-0.125,0.051 -0.26,0.077 -0.396,0.077c-0.135,0 -0.27,-0.026 -0.396,-0.077l-0.154,-0.081l-0.191,-0.724l-0.129,-0.732c0.096,-0.167 0.249,-0.301 0.428,-0.384c0.128,-0.061 0.267,-0.092 0.429,-0.098Z" style="fill:#896864;"/><circle cx="57.105" cy="19.72" r="1.52" style="fill:#896864;"/><circle cx="40.822" cy="22.761" r="1.52" style="fill:#896864;"/><circle cx="67.626" cy="43.548" r="1.663" style="fill:#896864;"/><circle cx="50.492" cy="34.942" r="1.52" style="fill:#896864;"/><path d="M44.704,34.346l-0.375,-0.124l-0.722,-0.288l0.284,-0.239l0.5,-0.46c0.925,-0.865 1.765,-1.814 2.5,-2.842c0.517,-0.724 0.98,-1.487 1.379,-2.282c0.463,-0.922 0.84,-1.887 1.115,-2.882c0.202,-0.732 0.35,-1.479 0.439,-2.234c0.096,-0.805 0.127,-1.618 0.091,-2.428c-0.057,-1.308 -0.287,-2.606 -0.679,-3.854c-0.244,-0.781 -0.551,-1.541 -0.913,-2.275c-0.244,-0.494 -0.512,-0.976 -0.803,-1.444c-0.221,-0.354 -0.454,-0.701 -0.699,-1.04c-1.542,-2.129 -3.537,-3.911 -5.754,-5.314l-0.785,-0.47l-0.23,-0.138l-0.7,-0.367l-0.658,-0.345c-0.631,-0.308 -1.276,-0.588 -1.931,-0.843c-0.778,-0.302 -1.571,-0.568 -2.374,-0.797c-1.102,-0.314 -2.225,-0.558 -3.357,-0.735c-0.949,-0.148 -1.906,-0.249 -2.864,-0.302c-0.477,-0.027 -0.955,-0.041 -1.433,-0.045c-0.101,-0.001 -0.203,-0.001 -0.304,-0.001c-0.479,0.002 -0.957,0.014 -1.435,0.038c-1.009,0.051 -2.015,0.154 -3.014,0.31c-1.039,0.162 -2.07,0.382 -3.085,0.66c-0.83,0.227 -1.649,0.493 -2.454,0.798c-0.595,0.226 -1.182,0.474 -1.758,0.743c-0.486,0.226 -0.964,0.468 -1.434,0.725c-0.347,0.19 -0.689,0.389 -1.027,0.596c-2.312,1.418 -4.393,3.242 -5.995,5.439c-0.247,0.337 -0.481,0.684 -0.703,1.038c-0.334,0.533 -0.639,1.085 -0.912,1.652c-0.421,0.877 -0.763,1.792 -1.015,2.732c-0.353,1.314 -0.527,2.675 -0.514,4.035l0.059,1.157l-0.042,-0.004c-0.026,0 -0.026,0 -0.051,0c-0.093,0.002 -0.185,0.009 -0.277,0.023c-0.185,0.028 -0.367,0.083 -0.537,0.163l-0.187,0.107c-0.077,-0.655 -0.102,-1.314 -0.086,-1.972c0.033,-1.408 0.253,-2.81 0.649,-4.162c0.341,-1.162 0.81,-2.284 1.387,-3.348c0.311,-0.574 0.654,-1.131 1.025,-1.669c0.241,-0.35 0.495,-0.693 0.759,-1.026c1.747,-2.208 3.953,-4.032 6.384,-5.442c0.36,-0.209 0.726,-0.409 1.096,-0.6c0.5,-0.258 1.009,-0.5 1.525,-0.726c0.612,-0.268 1.233,-0.513 1.863,-0.736c0.827,-0.292 1.668,-0.545 2.518,-0.759c1.043,-0.262 2.1,-0.466 3.164,-0.613c0.89,-0.123 1.786,-0.205 2.683,-0.249c0.444,-0.021 0.888,-0.032 1.332,-0.035c0.079,0 0.158,-0.001 0.237,0c0.445,0.001 0.889,0.011 1.333,0.032c0.873,0.039 1.744,0.117 2.61,0.231c1.067,0.142 2.126,0.341 3.171,0.599c0.853,0.21 1.696,0.458 2.525,0.746c0.699,0.243 1.388,0.514 2.065,0.812c0.494,0.218 0.981,0.451 1.46,0.698l1.096,0.6l0.174,0.107l-0.174,-0.107l-0.407,-0.223c0.842,-0.511 1.723,-0.962 2.626,-1.355c2.184,-0.949 4.509,-1.563 6.871,-1.852c0.664,-0.081 1.33,-0.136 1.998,-0.167c0.362,-0.016 0.724,-0.025 1.086,-0.027c0.092,-0.001 0.183,-0.001 0.274,0c0.362,0.002 0.724,0.011 1.086,0.027c0.668,0.031 1.335,0.086 1.998,0.167c0.736,0.09 1.468,0.212 2.193,0.365c0.626,0.133 1.248,0.289 1.862,0.469c0.483,0.141 0.962,0.298 1.435,0.469c0.428,0.155 0.85,0.322 1.268,0.501c2.558,1.096 4.934,2.656 6.864,4.669c1.209,1.26 2.237,2.699 2.993,4.275c0.563,1.172 0.973,2.417 1.202,3.697c0.188,1.048 0.255,2.117 0.199,3.18c-0.044,0.847 -0.167,1.69 -0.364,2.515c-0.162,0.678 -0.375,1.344 -0.633,1.991c-0.469,1.176 -1.089,2.29 -1.826,3.319c-0.646,0.9 -1.381,1.735 -2.183,2.499c-0.769,0.731 -1.6,1.397 -2.477,1.995c-0.392,0.267 -0.793,0.52 -1.201,0.761l-0.066,0.039l-0.023,0.013l2.544,10.986c0.004,0.028 0.01,0.056 0.012,0.085c0.002,0.057 -0.006,0.115 -0.024,0.169c-0.018,0.055 -0.046,0.105 -0.083,0.15c-0.073,0.089 -0.179,0.148 -0.293,0.165c-0.057,0.009 -0.115,0.006 -0.171,-0.006c-0.056,-0.013 -0.109,-0.035 -0.157,-0.067c-0.024,-0.016 -0.045,-0.036 -0.067,-0.054l-8.986,-8.709c-0.086,0.017 -0.173,0.034 -0.259,0.051c-0.084,0.016 -0.169,0.032 -0.253,0.048c-0.679,0.123 -1.361,0.221 -2.047,0.291c-1.142,0.117 -2.291,0.158 -3.439,0.126c0.029,-0.096 0.05,-0.194 0.064,-0.292c0.029,-0.209 0.025,-0.422 -0.012,-0.63l-0.003,-0.015c1.211,0.033 2.423,-0.019 3.626,-0.158c0.741,-0.085 1.479,-0.205 2.21,-0.356l0.081,-0.017l0.082,-0.017l0.075,-0.01c0.026,0.001 0.052,0 0.077,0.003c0.076,0.009 0.15,0.037 0.212,0.08c0.021,0.015 0.04,0.033 0.06,0.049l8.023,7.776l-2.264,-9.776l-0.012,-0.085c0.001,-0.029 0,-0.058 0.004,-0.086c0.016,-0.114 0.075,-0.22 0.164,-0.294c0.022,-0.019 0.047,-0.033 0.07,-0.049c0.085,-0.048 0.17,-0.096 0.254,-0.145c0.616,-0.358 1.215,-0.745 1.791,-1.166c1.179,-0.862 2.263,-1.858 3.198,-2.981c1.087,-1.307 1.972,-2.786 2.56,-4.383c0.372,-1.01 0.624,-2.065 0.741,-3.135c0.092,-0.841 0.101,-1.691 0.027,-2.534c-0.11,-1.263 -0.408,-2.507 -0.872,-3.687c-0.444,-1.129 -1.038,-2.197 -1.746,-3.181c-1.025,-1.425 -2.285,-2.674 -3.685,-3.729c-1.091,-0.823 -2.269,-1.529 -3.5,-2.12c-1.594,-0.764 -3.278,-1.336 -5.003,-1.719c-0.53,-0.117 -1.064,-0.217 -1.601,-0.3c-0.802,-0.123 -1.611,-0.207 -2.422,-0.252c-0.391,-0.022 -0.784,-0.034 -1.176,-0.039c-0.132,-0.001 -0.264,-0.001 -0.396,-0.001c-0.306,0.003 -0.612,0.009 -0.918,0.021c-0.687,0.028 -1.374,0.084 -2.057,0.167c-2.233,0.274 -4.433,0.848 -6.502,1.735c-0.36,0.154 -0.715,0.317 -1.066,0.49l-1.102,0.599c2.187,1.337 4.168,3.017 5.77,5.016c0.267,0.333 0.523,0.673 0.767,1.023c0.326,0.466 0.631,0.948 0.914,1.443c0.6,1.052 1.093,2.165 1.46,3.319c0.426,1.34 0.679,2.734 0.746,4.138c0.042,0.892 0.01,1.788 -0.095,2.674c-0.094,0.79 -0.247,1.573 -0.456,2.341c-0.28,1.026 -0.659,2.024 -1.126,2.979c-0.435,0.888 -0.945,1.74 -1.517,2.547c-0.674,0.951 -1.434,1.838 -2.262,2.654l-0.031,0.03l0.031,-0.03c1.005,0.329 2.032,0.586 3.072,0.775c-0.054,0.131 -0.094,0.267 -0.119,0.406c-0.031,0.172 -0.039,0.348 -0.024,0.522c-1.238,-0.223 -2.459,-0.539 -3.646,-0.952l-0.056,-0.02c-0.753,0.682 -1.558,1.312 -2.399,1.888c-2.654,1.817 -5.66,3.1 -8.781,3.86c-0.06,0.015 -0.121,0.03 -0.182,0.044c0.023,-0.237 0.013,-0.478 -0.029,-0.713c-0.025,-0.14 -0.062,-0.277 -0.109,-0.411c0.041,-0.01 0.082,-0.02 0.123,-0.03c2.964,-0.73 5.82,-1.951 8.342,-3.678c0.636,-0.436 1.252,-0.905 1.834,-1.406l0.722,0.288l0.375,0.124ZM49.63,34.581c0.393,0.055 0.789,0.101 1.184,0.137c0.215,0.02 0.43,0.037 0.645,0.051c0.026,0.061 0.047,0.124 0.061,0.188c0.026,0.122 0.031,0.249 0.013,0.372c-0.015,0.107 -0.046,0.211 -0.093,0.308c-0.011,0.023 -0.023,0.046 -0.036,0.068c-0.314,-0.021 -0.627,-0.047 -0.94,-0.079c-0.325,-0.033 -0.649,-0.072 -0.971,-0.117c-0.018,-0.054 -0.032,-0.11 -0.04,-0.166c-0.018,-0.115 -0.016,-0.233 0.004,-0.347c0.018,-0.102 0.052,-0.2 0.099,-0.292c0.021,-0.043 0.046,-0.084 0.074,-0.123Z" style="fill:#896864;"/><circle cx="50.998" cy="10.335" r="2.16" style="fill:#896864;"/><circle cx="3.076" cy="24.502" r="1.517" style="fill:#896864;"/><circle cx="16.095" cy="18.29" r="0.999" style="fill:#896864;"/><circle cx="42.342" cy="26.519" r="0.5" style="fill:#896864;"/><circle cx="57.381" cy="12.533" r="0.5" style="fill:#896864;"/></g></g></g></svg>