<?xml version="1.0" standalone="no"?><!DOCTYPE svg PUBLIC "-//W3C//DTD SVG 1.1//EN" "http://www.w3.org/Graphics/SVG/1.1/DTD/svg11.dtd"><svg width="100%" height="100%" viewBox="0 0 61 72" version="1.1" xmlns="http://www.w3.org/2000/svg" xmlns:xlink="http://www.w3.org/1999/xlink" xml:space="preserve" style="fill-rule:evenodd;clip-rule:evenodd;stroke-linejoin:round;stroke-miterlimit:1.41421;"><g><g><circle cx="3" cy="24.563" r="2.28" style="fill:#896864;"/><circle cx="57.268" cy="26.843" r="1.52" style="fill:#896864;"/><circle cx="58.789" cy="30.602" r="0.5" style="fill:#896864;"/><circle cx="12.639" cy="43.527" r="2.16" style="fill:#896864;"/><circle cx="12.639" cy="30.502" r="1.517" style="fill:#896864;"/><path d="M48.713,4l-15.351,0c2.825,1.135 5.133,2.203 10.554,4.498l0.12,0c0.215,0.042 0.217,0.043 0.399,0.165l0.123,0.183l0.043,0.217l0,54.921l4.112,0l0,-59.984ZM12.074,41.932c0.106,-0.037 0.216,-0.064 0.328,-0.08c0.071,-0.01 0.143,-0.015 0.215,-0.016c0.029,0 0.058,0 0.087,0.001c0.079,0.003 0.157,0.011 0.234,0.025c0.091,0.016 0.179,0.04 0.266,0.07l0,3.189c-0.188,0.066 -0.388,0.099 -0.587,0.096c-0.185,-0.002 -0.369,-0.035 -0.543,-0.096l0,-3.189ZM13.204,32.406l0,8.553c-0.066,-0.014 -0.132,-0.026 -0.198,-0.036c-0.111,-0.015 -0.222,-0.023 -0.333,-0.025c-0.034,0 -0.034,0 -0.068,0c-0.112,0.002 -0.223,0.01 -0.333,0.025c-0.067,0.01 -0.133,0.022 -0.198,0.036l0,-8.553c0.191,0.057 0.391,0.084 0.59,0.082c0.183,-0.003 0.365,-0.03 0.54,-0.082ZM12.074,29.619c0.039,-0.025 0.08,-0.048 0.122,-0.068c0.135,-0.063 0.281,-0.095 0.429,-0.098c0.014,0 0.014,0 0.028,0c0.148,0.003 0.294,0.035 0.428,0.098c0.043,0.02 0.084,0.043 0.123,0.068l0,1.766c-0.054,0.034 -0.11,0.064 -0.169,0.088c-0.126,0.051 -0.261,0.077 -0.396,0.077c-0.136,0 -0.271,-0.026 -0.396,-0.077c-0.059,-0.024 -0.116,-0.054 -0.169,-0.088l0,-1.766ZM44.266,8.706l0.007,0.011l0.007,0.01c-0.002,-0.003 -0.005,-0.007 -0.007,-0.01l-0.001,-0.002l-0.003,-0.004l-0.002,-0.003l-0.001,-0.002l-0.002,-0.003l-0.011,-0.016l0.013,0.019ZM25.031,4l0.028,65.459l18.313,-5.164l-0.085,-54.667l0,-0.174l-2.226,-0.956l-0.119,-0.051c-5.018,-2.148 -6.718,-2.976 -10.657,-4.447l-3.131,-1.13l-2.124,-0.767l0.001,1.897ZM23.899,1.309c0.014,-0.07 0.014,-0.144 0.041,-0.21c0.054,-0.135 0.159,-0.243 0.291,-0.303c0.065,-0.029 0.139,-0.033 0.209,-0.049c0.071,0.01 0.141,0.021 0.212,0.031l5.809,2.092l18.817,0l0.216,0.043l0.183,0.122l0.123,0.183l0.043,0.217l0,61.114c-0.043,0.215 -0.044,0.217 -0.166,0.399l-0.183,0.123l-0.216,0.043l-4.948,0l0.121,-0.16l0.051,-0.235l-0.086,-55.638c-0.002,-0.011 -0.004,-0.022 -0.006,-0.032c-0.002,-0.01 -0.004,-0.019 -0.006,-0.028l0,0c-0.002,-0.008 -0.003,-0.016 -0.005,-0.023l0,-0.003l-0.003,-0.012l0,0l0,0l-0.003,-0.012l0,-0.003l-0.001,-0.002l0,-0.002c-0.001,-0.005 -0.003,-0.009 -0.004,-0.014c0,-0.003 -0.001,-0.007 -0.002,-0.01c-0.001,-0.003 -0.002,-0.006 -0.003,-0.009l0.003,0.009l0.002,0.01l0.004,0.014l0.001,0.004l0.003,0.015l0.003,0.015l0.005,0.023l0.006,0.028c0.002,0.01 0.004,0.021 0.006,0.032l0.086,55.638l-0.051,0.235l-0.121,0.16l-0.025,0.033l-0.213,0.113l-19.444,5.484c-0.068,0.006 -0.137,0.025 -0.206,0.019c-0.14,-0.013 -0.271,-0.078 -0.365,-0.181c-0.047,-0.051 -0.085,-0.112 -0.11,-0.176c-0.024,-0.064 -0.025,-0.135 -0.038,-0.203l-0.026,-60.575l-5.457,0l0,54.243l0,0l0,1.243l-5.807,0c-0.215,-0.043 -0.218,-0.044 -0.4,-0.166l-0.122,-0.183l-0.043,-0.216l0,-18.455c0.185,0.04 0.375,0.061 0.565,0.061c0.19,0 0.379,-0.021 0.565,-0.061l0,17.89l4.112,0l0,-54.921l0.043,-0.217l0.122,-0.183l0.183,-0.122l0.217,-0.043l6.021,0l-0.001,-4.498l-10.697,0l0,24.597c-0.086,-0.025 -0.175,-0.045 -0.264,-0.058c-0.091,-0.014 -0.183,-0.021 -0.276,-0.023c-0.034,0 -0.068,0 -0.102,0.001c-0.092,0.004 -0.183,0.013 -0.274,0.03c-0.073,0.013 -0.144,0.03 -0.214,0.051l0,-25.163c0.043,-0.215 0.044,-0.218 0.165,-0.4l0.184,-0.122l0.216,-0.043l11.261,0l-0.001,-1.561Z" style="fill:#896864;"/></g><path d="M33.467,38.566l-6.305,-0.35c-0.824,0.528 -0.738,1.083 0,1.656l6.305,-1.306Z" style="fill:#896864;"/></g></svg>