<?xml version="1.0" standalone="no"?><!DOCTYPE svg PUBLIC "-//W3C//DTD SVG 1.1//EN" "http://www.w3.org/Graphics/SVG/1.1/DTD/svg11.dtd"><svg width="100%" height="100%" viewBox="0 0 58 51" version="1.1" xmlns="http://www.w3.org/2000/svg" xmlns:xlink="http://www.w3.org/1999/xlink" xml:space="preserve" style="fill-rule:evenodd;clip-rule:evenodd;stroke-linejoin:round;stroke-miterlimit:1.41421;"><g><path d="M46.99,0.4c0.157,0.003 0.312,0.03 0.46,0.084c0.164,0.059 0.316,0.148 0.448,0.262c0.166,0.144 0.297,0.327 0.381,0.53c0.054,0.13 0.087,0.268 0.101,0.408l0.002,0.022l0.537,7.036c2.04,1.184 4.092,2.35 6.122,3.552c0.049,0.031 0.098,0.064 0.144,0.1c0.103,0.081 0.194,0.176 0.271,0.283c0.086,0.118 0.153,0.25 0.198,0.389c0.041,0.125 0.065,0.255 0.07,0.387c0.007,0.174 -0.019,0.35 -0.076,0.515c-0.066,0.192 -0.174,0.37 -0.315,0.517c-0.09,0.095 -0.194,0.177 -0.307,0.244c-0.05,0.029 -0.102,0.055 -0.156,0.079l-0.021,0.009l-6.525,2.684c-0.495,2.307 -0.971,4.618 -1.487,6.92c-0.013,0.057 -0.03,0.113 -0.05,0.168c-0.045,0.123 -0.108,0.24 -0.185,0.346c-0.125,0.171 -0.288,0.313 -0.475,0.413c-0.146,0.079 -0.307,0.131 -0.472,0.154c-0.13,0.019 -0.263,0.019 -0.393,0.001c-0.145,-0.02 -0.286,-0.063 -0.418,-0.126c-0.118,-0.057 -0.228,-0.13 -0.326,-0.217c-0.044,-0.039 -0.085,-0.081 -0.124,-0.124l-0.015,-0.017l-4.569,-5.376c-2.347,0.241 -4.692,0.503 -7.041,0.724c-0.059,0.005 -0.117,0.006 -0.175,0.004c-0.131,-0.005 -0.262,-0.028 -0.386,-0.069c-0.194,-0.063 -0.373,-0.169 -0.522,-0.307c-0.134,-0.124 -0.244,-0.275 -0.321,-0.44c-0.052,-0.112 -0.09,-0.231 -0.112,-0.352c-0.025,-0.144 -0.028,-0.291 -0.009,-0.436c0.018,-0.13 0.053,-0.258 0.106,-0.378c0.023,-0.054 0.05,-0.105 0.079,-0.156l0.012,-0.019l3.701,-6.007c-0.955,-2.158 -1.929,-4.307 -2.865,-6.473c-0.022,-0.054 -0.042,-0.109 -0.058,-0.165c-0.035,-0.126 -0.053,-0.257 -0.053,-0.388c0,-0.147 0.023,-0.293 0.068,-0.432c0.038,-0.117 0.091,-0.229 0.158,-0.333c0.094,-0.147 0.216,-0.276 0.358,-0.379c0.171,-0.124 0.37,-0.209 0.578,-0.247c0.129,-0.024 0.261,-0.03 0.392,-0.017c0.058,0.006 0.116,0.015 0.173,0.028l0.022,0.005l6.856,1.663c1.757,-1.574 3.5,-3.165 5.271,-4.724c0.07,-0.059 0.144,-0.113 0.223,-0.158c0.142,-0.081 0.297,-0.138 0.458,-0.166c0.064,-0.011 0.129,-0.018 0.194,-0.021c0.024,0 0.048,0 0.073,0ZM46.963,1.53c-0.049,0.001 -0.098,0.014 -0.141,0.04c-0.017,0.01 -0.032,0.022 -0.047,0.035l-5.471,4.904c-0.047,0.038 -0.058,0.05 -0.112,0.079c-0.08,0.042 -0.171,0.065 -0.262,0.066c-0.061,0 -0.076,-0.006 -0.136,-0.016c-2.38,-0.578 -4.76,-1.155 -7.141,-1.733c-0.007,-0.002 -0.015,-0.003 -0.022,-0.004c-0.036,-0.006 -0.073,-0.006 -0.109,0.002c-0.029,0.006 -0.057,0.017 -0.083,0.032c-0.088,0.051 -0.143,0.147 -0.143,0.248c0,0.039 0.008,0.077 0.022,0.112l0.004,0.007l2.974,6.719l0.023,0.064c0.014,0.059 0.021,0.074 0.024,0.135c0.005,0.091 -0.013,0.183 -0.051,0.266c-0.009,0.021 -0.021,0.04 -0.032,0.06c-1.285,2.086 -2.57,4.171 -3.854,6.256c-0.004,0.007 -0.008,0.013 -0.012,0.02c-0.017,0.033 -0.027,0.068 -0.031,0.105c-0.01,0.099 0.034,0.198 0.114,0.258c0.023,0.018 0.05,0.032 0.078,0.041c0.041,0.014 0.083,0.018 0.126,0.014l7.309,-0.752c0.061,-0.002 0.076,-0.006 0.136,0.003c0.091,0.012 0.178,0.047 0.252,0.101c0.049,0.035 0.058,0.049 0.1,0.092c1.586,1.867 3.173,3.733 4.759,5.599c0.005,0.006 0.01,0.012 0.015,0.017c0.026,0.026 0.056,0.047 0.09,0.062c0.027,0.012 0.056,0.02 0.086,0.023c0.099,0.01 0.198,-0.033 0.258,-0.113c0.026,-0.034 0.043,-0.073 0.053,-0.115l1.543,-7.184c0.016,-0.058 0.018,-0.074 0.045,-0.129c0.04,-0.082 0.1,-0.154 0.173,-0.208c0.05,-0.036 0.065,-0.04 0.119,-0.067c2.265,-0.932 4.531,-1.863 6.796,-2.795c0.007,-0.003 0.014,-0.006 0.021,-0.01c0.032,-0.016 0.062,-0.038 0.086,-0.066c0.02,-0.022 0.036,-0.047 0.048,-0.075c0.041,-0.09 0.03,-0.199 -0.027,-0.28c-0.024,-0.036 -0.056,-0.064 -0.093,-0.086l-6.356,-3.687c-0.05,-0.034 -0.065,-0.04 -0.109,-0.083c-0.065,-0.063 -0.115,-0.142 -0.144,-0.229c-0.019,-0.058 -0.018,-0.074 -0.027,-0.134c-0.186,-2.442 -0.372,-4.884 -0.558,-7.327c-0.001,-0.007 -0.002,-0.015 -0.003,-0.023c-0.014,-0.092 -0.073,-0.174 -0.158,-0.215c-0.028,-0.014 -0.057,-0.022 -0.087,-0.027c-0.015,-0.002 -0.03,-0.003 -0.045,-0.002Z" style="fill:#896864;fill-rule:nonzero;"/><path d="M15.274,19.2c0.018,0.002 0.036,0.004 0.055,0.007c0.072,0.014 0.142,0.042 0.203,0.083c0.042,0.027 0.05,0.037 0.086,0.069l10.658,10.472c0.012,0.013 0.025,0.026 0.037,0.04c0.047,0.057 0.083,0.122 0.105,0.192c0.017,0.052 0.026,0.107 0.027,0.162c0.002,0.166 -0.07,0.328 -0.196,0.437c-0.042,0.036 -0.089,0.066 -0.139,0.088c-0.067,0.03 -0.14,0.046 -0.213,0.049c-0.049,0.001 -0.061,-0.002 -0.11,-0.008l-4.303,-0.713l-1.354,4.147l-0.02,0.052c-0.008,0.016 -0.015,0.033 -0.024,0.049c-0.036,0.064 -0.084,0.121 -0.142,0.166c-0.043,0.034 -0.091,0.062 -0.142,0.083c-0.051,0.02 -0.105,0.033 -0.16,0.038c-0.165,0.014 -0.333,-0.047 -0.45,-0.164c-0.052,-0.052 -0.093,-0.114 -0.121,-0.182c-0.007,-0.017 -0.013,-0.035 -0.019,-0.052l-4.37,-14.287c-0.004,-0.018 -0.01,-0.036 -0.013,-0.054c-0.011,-0.054 -0.014,-0.11 -0.009,-0.165c0.014,-0.148 0.087,-0.287 0.202,-0.382c0.042,-0.035 0.09,-0.064 0.141,-0.085c0.051,-0.022 0.105,-0.036 0.16,-0.042c0.019,-0.002 0.037,-0.002 0.056,-0.003c0.018,0.001 0.036,0.002 0.055,0.003ZM19.61,32.176l0.95,-2.91l0.019,-0.05c0.008,-0.016 0.015,-0.032 0.024,-0.048c0.017,-0.031 0.037,-0.06 0.06,-0.088c0.092,-0.11 0.224,-0.182 0.367,-0.199c0.035,-0.005 0.071,-0.006 0.106,-0.003c0.018,0.001 0.036,0.004 0.054,0.006l3.019,0.5l-7.795,-7.659c1.065,3.483 2.131,6.967 3.196,10.451Z" style="fill:#896864;fill-rule:nonzero;"/><circle cx="4.05" cy="14.273" r="1.315" style="fill:#896864;"/><path d="M2.32,14.088c-0.413,-0.142 -0.824,-0.285 -1.236,-0.43c-0.049,-0.018 -0.098,-0.039 -0.145,-0.063c-0.105,-0.053 -0.203,-0.122 -0.29,-0.202c-0.097,-0.09 -0.179,-0.195 -0.244,-0.31c-0.059,-0.103 -0.102,-0.215 -0.13,-0.33c-0.037,-0.154 -0.045,-0.314 -0.023,-0.47c0.024,-0.182 0.089,-0.358 0.187,-0.513c0.063,-0.1 0.141,-0.191 0.229,-0.27c0.04,-0.035 0.081,-0.067 0.124,-0.098l0.017,-0.011l4.887,-3.249c0.03,-1.962 0.043,-3.925 0.09,-5.887c0.006,-0.135 0.03,-0.267 0.076,-0.394c0.07,-0.194 0.187,-0.369 0.339,-0.508c0.122,-0.112 0.265,-0.199 0.42,-0.256c0.133,-0.049 0.272,-0.075 0.413,-0.079c0.023,-0.001 0.022,-0.001 0.044,0c0.081,0.001 0.161,0.009 0.24,0.025c0.138,0.028 0.271,0.078 0.392,0.149c0.052,0.03 0.101,0.064 0.148,0.101l4.599,3.643c1.876,-0.578 3.747,-1.172 5.627,-1.733c0.022,-0.006 0.044,-0.012 0.066,-0.017c0.052,-0.012 0.103,-0.021 0.155,-0.027c0.118,-0.012 0.237,-0.008 0.353,0.012c0.123,0.022 0.242,0.061 0.354,0.117c0.288,0.144 0.515,0.397 0.627,0.699c0.043,0.117 0.07,0.24 0.077,0.364c0.008,0.118 -0.001,0.238 -0.026,0.353c-0.012,0.052 -0.026,0.102 -0.043,0.152l-0.007,0.019l-2.044,5.501c1.129,1.605 2.273,3.201 3.387,4.816c0.03,0.044 0.057,0.089 0.081,0.136c0.054,0.106 0.093,0.219 0.115,0.335c0.026,0.129 0.031,0.263 0.016,0.394c-0.014,0.118 -0.044,0.234 -0.089,0.343c-0.061,0.146 -0.148,0.28 -0.257,0.394c-0.127,0.133 -0.283,0.237 -0.454,0.305c-0.11,0.044 -0.226,0.072 -0.344,0.084c-0.052,0.005 -0.105,0.007 -0.158,0.006l-0.02,-0.001l-5.863,-0.244c-1.178,1.57 -2.342,3.15 -3.533,4.71c-0.033,0.041 -0.068,0.081 -0.105,0.118c-0.084,0.084 -0.179,0.156 -0.282,0.214c-0.116,0.064 -0.241,0.11 -0.37,0.136c-0.117,0.024 -0.236,0.031 -0.355,0.022c-0.164,-0.013 -0.326,-0.059 -0.474,-0.133c-0.157,-0.079 -0.297,-0.191 -0.41,-0.327c-0.075,-0.091 -0.138,-0.193 -0.186,-0.301c-0.021,-0.049 -0.039,-0.098 -0.054,-0.149l-0.006,-0.019l-1.579,-5.652c-0.374,-0.127 -0.747,-0.254 -1.121,-0.381c0.034,-0.056 0.065,-0.114 0.093,-0.173c0.076,-0.163 0.126,-0.337 0.149,-0.515c0.018,-0.14 0.018,-0.284 0.002,-0.425l1.524,0.521l0.056,0.023c0.048,0.025 0.061,0.03 0.104,0.063c0.064,0.049 0.118,0.112 0.156,0.184c0.025,0.048 0.028,0.062 0.045,0.113c0.553,1.978 1.105,3.955 1.658,5.933c0.002,0.006 0.004,0.012 0.006,0.018c0.007,0.017 0.017,0.033 0.03,0.047c0.047,0.049 0.123,0.061 0.182,0.028c0.016,-0.01 0.031,-0.022 0.043,-0.037c0.003,-0.003 0.002,-0.003 0.005,-0.006l3.697,-4.928l0.039,-0.047c0.038,-0.037 0.047,-0.048 0.092,-0.079c0.066,-0.046 0.143,-0.078 0.223,-0.092c0.053,-0.009 0.067,-0.007 0.121,-0.008c2.052,0.086 4.103,0.171 6.155,0.257c0.006,0 0.013,0 0.019,0c0.019,-0.002 0.037,-0.006 0.054,-0.015c0.061,-0.029 0.096,-0.097 0.083,-0.163c-0.004,-0.019 -0.011,-0.037 -0.022,-0.053c-0.002,-0.003 -0.002,-0.003 -0.004,-0.007l-3.545,-5.038l-0.032,-0.052c-0.024,-0.048 -0.032,-0.06 -0.047,-0.112c-0.023,-0.077 -0.029,-0.16 -0.018,-0.24c0.007,-0.054 0.014,-0.067 0.03,-0.118c0.715,-1.925 1.43,-3.85 2.146,-5.775c0.002,-0.005 0.004,-0.011 0.005,-0.017c0.005,-0.019 0.006,-0.038 0.004,-0.057c-0.009,-0.067 -0.064,-0.12 -0.131,-0.128c-0.019,-0.003 -0.038,-0.001 -0.056,0.004c-0.004,0.001 -0.004,0.001 -0.008,0.002l-5.887,1.814l-0.059,0.015c-0.054,0.007 -0.067,0.011 -0.121,0.01c-0.081,-0.002 -0.162,-0.022 -0.235,-0.057c-0.048,-0.024 -0.058,-0.034 -0.102,-0.065c-1.61,-1.275 -3.22,-2.551 -4.829,-3.826c-0.005,-0.003 -0.01,-0.007 -0.015,-0.01c-0.017,-0.011 -0.034,-0.017 -0.053,-0.021c-0.01,-0.002 -0.02,-0.003 -0.031,-0.002c-0.06,0.001 -0.114,0.039 -0.136,0.096c-0.006,0.015 -0.009,0.031 -0.009,0.048l-0.001,0.005l-0.094,6.16l-0.004,0.061c-0.009,0.053 -0.01,0.067 -0.028,0.118c-0.026,0.076 -0.07,0.147 -0.126,0.205c-0.038,0.039 -0.051,0.046 -0.094,0.078c-1.71,1.137 -3.42,2.273 -5.13,3.41c-0.005,0.004 -0.01,0.007 -0.015,0.011c-0.015,0.012 -0.027,0.027 -0.036,0.044c-0.032,0.059 -0.02,0.135 0.03,0.181c0.014,0.013 0.03,0.023 0.048,0.03c0.004,0.001 0.004,0.001 0.008,0.002l1.336,0.457c-0.134,0.136 -0.245,0.293 -0.328,0.465c-0.071,0.148 -0.122,0.306 -0.148,0.468c-0.006,0.034 -0.011,0.068 -0.014,0.101ZM3.843,13.408l0.901,0.307c0.036,0.045 0.068,0.093 0.095,0.144c0.039,0.074 0.067,0.153 0.084,0.235c0.021,0.103 0.024,0.211 0.008,0.315c-0.014,0.087 -0.04,0.171 -0.078,0.25c-0.042,0.087 -0.098,0.167 -0.165,0.236c-0.508,-0.172 -1.015,-0.344 -1.522,-0.517c-0.011,-0.094 -0.007,-0.191 0.012,-0.284c0.017,-0.082 0.045,-0.161 0.084,-0.235c0.091,-0.171 0.237,-0.311 0.413,-0.393c0.054,-0.025 0.11,-0.045 0.168,-0.058Z" style="fill:#896864;"/><path d="M13.749,33.627c0.906,0.487 1.247,1.618 0.76,2.524c-0.486,0.906 -1.617,1.247 -2.523,0.76c-0.906,-0.486 -1.247,-1.617 -0.761,-2.523c0.487,-0.906 1.617,-1.247 2.524,-0.761Z" style="fill:#896864;"/><path d="M51.202,22.862c0.567,0.304 0.77,1.03 0.453,1.619c-0.316,0.59 -1.033,0.822 -1.6,0.518c-0.566,-0.304 -0.769,-1.03 -0.453,-1.619c0.317,-0.59 1.034,-0.822 1.6,-0.518Z" style="fill:#896864;"/><path d="M7.674,32.482c0.453,0.243 0.623,0.808 0.38,1.261c-0.243,0.453 -0.808,0.624 -1.261,0.381c-0.454,-0.244 -0.624,-0.809 -0.381,-1.262c0.243,-0.453 0.809,-0.623 1.262,-0.38Z" style="fill:#896864;"/><circle cx="27.221" cy="37.037" r="1.864" style="fill:#896864;"/><circle cx="33.186" cy="29.224" r="1.397" style="fill:#896864;"/><path d="M33.838,27.657l4.343,-5.422c0.017,-0.018 0.032,-0.038 0.051,-0.055c0.073,-0.07 0.165,-0.119 0.263,-0.142c0.066,-0.015 0.083,-0.012 0.15,-0.014c0.025,0.003 0.05,0.006 0.076,0.008c0.024,0.006 0.049,0.011 0.073,0.018c0.048,0.016 0.094,0.038 0.136,0.065c0.15,0.098 0.246,0.264 0.256,0.442c0.003,0.068 -0.002,0.084 -0.012,0.151l-5.778,26.777c-0.007,0.024 -0.012,0.049 -0.021,0.073c-0.026,0.071 -0.066,0.137 -0.118,0.192c-0.034,0.037 -0.073,0.07 -0.116,0.096c-0.152,0.094 -0.344,0.11 -0.51,0.043c-0.047,-0.019 -0.091,-0.044 -0.131,-0.075c-0.06,-0.046 -0.111,-0.104 -0.148,-0.171c-0.013,-0.021 -0.022,-0.045 -0.033,-0.068l-2.982,-7.465l-7.672,2.398l-0.074,0.018c-0.025,0.002 -0.05,0.007 -0.075,0.007c-0.076,0.003 -0.152,-0.01 -0.223,-0.037c-0.047,-0.018 -0.092,-0.043 -0.133,-0.073c-0.122,-0.09 -0.204,-0.23 -0.224,-0.381c-0.007,-0.05 -0.006,-0.101 0.001,-0.151c0.01,-0.075 0.036,-0.148 0.075,-0.213c0.013,-0.022 0.029,-0.042 0.043,-0.062l4.166,-5.201c0.095,0.137 0.203,0.264 0.324,0.379c0.155,0.148 0.33,0.275 0.518,0.377l-2.969,3.706l6.405,-2.001l0.075,-0.018c0.067,-0.007 0.085,-0.012 0.153,-0.005c0.153,0.016 0.296,0.097 0.39,0.219c0.042,0.055 0.046,0.072 0.076,0.133l2.489,6.232l4.882,-22.624l-2.885,3.602c-0.173,-0.318 -0.448,-0.576 -0.775,-0.73c-0.022,-0.01 -0.044,-0.019 -0.066,-0.028ZM27.359,35.746c0.157,0.017 0.31,0.062 0.452,0.134c0.209,0.107 0.387,0.271 0.512,0.47l-1.532,1.912c-0.03,-0.01 -0.06,-0.022 -0.09,-0.035c-0.148,-0.065 -0.284,-0.158 -0.398,-0.272c-0.111,-0.111 -0.202,-0.242 -0.267,-0.385c-0.017,-0.038 -0.032,-0.076 -0.045,-0.116l1.368,-1.708ZM31.799,30.202c0.068,0.096 0.145,0.185 0.231,0.264c0.155,0.145 0.337,0.26 0.534,0.337c0.052,0.021 0.105,0.039 0.159,0.054l-3.672,4.584c-0.049,-0.056 -0.101,-0.11 -0.155,-0.162c-0.191,-0.182 -0.411,-0.332 -0.649,-0.444c-0.039,-0.018 -0.078,-0.035 -0.118,-0.051l3.67,-4.582ZM33.438,28.156c0.073,0.017 0.144,0.041 0.212,0.073c0.216,0.101 0.396,0.273 0.508,0.484c0.039,0.075 0.07,0.155 0.091,0.238l-1.097,1.37c-0.13,-0.004 -0.259,-0.031 -0.38,-0.081c-0.127,-0.051 -0.244,-0.127 -0.343,-0.222c-0.094,-0.09 -0.173,-0.197 -0.23,-0.315l1.239,-1.547Z" style="fill:#896864;"/></g></svg>