<?xml version="1.0" standalone="no"?><!DOCTYPE svg PUBLIC "-//W3C//DTD SVG 1.1//EN" "http://www.w3.org/Graphics/SVG/1.1/DTD/svg11.dtd"><svg width="100%" height="100%" viewBox="0 0 244 130" version="1.1" xmlns="http://www.w3.org/2000/svg" xmlns:xlink="http://www.w3.org/1999/xlink" xml:space="preserve" style="fill-rule:evenodd;clip-rule:evenodd;stroke-linecap:round;stroke-linejoin:round;stroke-miterlimit:1.41421;"><g id="Layer1"><g><g><circle cx="76.039" cy="118.313" r="8.247" style="fill:#fff;stroke-width:0.24px;stroke:#fff;"/><circle cx="40.671" cy="8.637" r="8.247" style="fill:#fff;stroke-width:0.24px;stroke:#fff;"/><circle cx="76.039" cy="56.715" r="6.76" style="fill:#fff;stroke-width:0.24px;stroke:#fff;"/><circle cx="45.422" cy="49.158" r="2.412" style="fill:#fff;stroke-width:0.24px;stroke:#fff;"/><circle cx="79.949" cy="28.151" r="2.412" style="fill:#fff;stroke-width:0.24px;stroke:#fff;"/><circle cx="7.17" cy="45.632" r="2.933" style="fill:#fff;stroke-width:0.24px;stroke:#fff;"/><circle cx="110.279" cy="8.886" r="2.933" style="fill:#fff;stroke-width:0.24px;stroke:#fff;"/><circle cx="140.787" cy="46.264" r="2.933" style="fill:#fff;stroke-width:0.24px;stroke:#fff;"/><g><g><path d="M75.289,118.313l0,-61.914l-35.087,-47.315l1.205,-0.894l35.235,47.515c0.109,0.21 0.11,0.212 0.147,0.446l0,62.162c-0.5,0 -1,0 -1.5,0Z" style="fill:#fff;fill-rule:nonzero;stroke-width:0.24px;stroke-linecap:butt;stroke:#fff;"/><path d="M74.783,118.45c-15.668,-16.785 -31.337,-33.571 -47.005,-50.357l-20.608,-22.077l1.097,-1.023c9.869,10.573 19.738,21.146 29.607,31.719l38.005,40.715c-0.365,0.341 -0.731,0.682 -1.096,1.023Z" style="fill:#fff;fill-rule:nonzero;stroke-width:2.5px;stroke-linecap:butt;stroke:#fff;"/><path d="M42.485,9.571l0.003,-1.5l66.952,0.13l-0.002,1.5l-66.953,-0.13Z" style="fill:#fff;fill-rule:nonzero;stroke-width:2.5px;stroke-linecap:butt;stroke:#fff;"/><path d="M7.698,46.703l-1.155,-0.957l16.77,-20.22l14.546,-17.54l1.155,0.958c-10.439,12.586 -20.877,25.173 -31.316,37.759Z" style="fill:#fff;fill-rule:nonzero;stroke-width:2.5px;stroke-linecap:butt;stroke:#fff;"/><path d="M141.017,47.124l-31.316,-37.759l1.155,-0.958l31.316,37.76c-0.385,0.319 -0.77,0.638 -1.155,0.957Z" style="fill:#fff;fill-rule:nonzero;stroke-width:2.5px;stroke-linecap:butt;stroke:#fff;"/><path d="M44.677,49.243l-4.617,-40.271l1.49,-0.171l4.617,40.271c-0.496,0.057 -0.993,0.114 -1.49,0.171Z" style="fill:#fff;fill-rule:nonzero;stroke-width:0.24px;stroke-linecap:butt;stroke:#fff;"/><path d="M76.758,56.985l-18.596,-4.189l-12.905,-2.907l0.33,-1.463l12.904,2.907l18.597,4.189c-0.11,0.488 -0.22,0.975 -0.33,1.463Z" style="fill:#fff;fill-rule:nonzero;stroke-width:0.24px;stroke-linecap:butt;stroke:#fff;"/><path d="M45.292,50.466l-38.199,-4.059l0.158,-1.491l38.199,4.058c-0.053,0.498 -0.106,0.995 -0.158,1.492Z" style="fill:#fff;fill-rule:nonzero;stroke-width:0.24px;stroke-linecap:butt;stroke:#fff;"/><path d="M76.24,118.624l-31.5,-69.156l1.365,-0.621l31.5,69.155c-0.455,0.207 -0.91,0.415 -1.365,0.622Z" style="fill:#fff;fill-rule:nonzero;stroke-width:0.24px;stroke-linecap:butt;stroke:#fff;"/><path d="M77.03,55.486l-0.187,-1.489l64.658,-8.096l0.186,1.489l-64.657,8.096Z" style="fill:#fff;fill-rule:nonzero;stroke-width:0.24px;stroke-linecap:butt;stroke:#fff;"/><path d="M77.68,50.789l-1.487,-0.191l2.933,-22.927l1.488,0.19c-0.978,7.642 -1.956,15.285 -2.934,22.928Z" style="fill:#fff;fill-rule:nonzero;stroke-width:0.24px;stroke-linecap:butt;stroke:#fff;"/><path d="M139.144,47.362l-33.067,-10.241l-27.896,-8.639l0.444,-1.433l60.963,18.88c-0.148,0.478 -0.296,0.955 -0.444,1.433Z" style="fill:#fff;fill-rule:nonzero;stroke-width:0.24px;stroke-linecap:butt;stroke:#fff;"/><path d="M78.067,28.436l-37.625,-18.88l0.673,-1.34l37.625,18.879c-0.225,0.447 -0.449,0.894 -0.673,1.341Z" style="fill:#fff;fill-rule:nonzero;stroke-width:0.24px;stroke-linecap:butt;stroke:#fff;"/></g><path d="M81.123,28.186l-0.811,-1.262l29.396,-18.879l0.811,1.262c-9.799,6.293 -19.597,12.586 -29.396,18.879Z" style="fill:#fff;fill-rule:nonzero;stroke-width:0.24px;stroke-linecap:butt;stroke:#fff;"/></g><g><path d="M109.301,113.292l0,-44.18l13.563,0l0,-2.455l-29.711,0l0,2.521l13.499,0l0,44.114l2.649,0Z" style="fill:#fff;fill-rule:nonzero;stroke-width:0.75px;stroke-linecap:butt;stroke:#fff;"/><path d="M159.64,113.292l-12.427,-20.896c7.444,0 12.238,-5.838 12.238,-12.869c0,-7.032 -4.605,-12.87 -11.733,-12.87l-18.546,0l0,46.635l2.649,0l0,-20.896l12.238,0l12.427,20.896l3.154,0ZM131.821,89.875l0,-20.697l15.707,0c5.615,0 9.147,4.71 9.147,10.349c0,5.638 -3.532,10.348 -9.147,10.348l-15.707,0Z" style="fill:#fff;fill-rule:nonzero;stroke-width:0.75px;stroke-linecap:butt;stroke:#fff;"/><path d="M194.902,94.386c0,11.211 -2.964,17.248 -12.679,17.248c-9.714,0 -12.679,-6.037 -12.679,-17.248l0,-27.729l-2.65,0l0,27.398c0,13.002 3.785,20.1 15.329,20.1c11.544,0 15.329,-7.098 15.329,-20.1l0,-27.398l-2.65,0l0,27.729Z" style="fill:#fff;fill-rule:nonzero;stroke-width:0.75px;stroke-linecap:butt;stroke:#fff;"/><path d="M239.69,90.605l-15.076,0l0,2.521l12.426,0c-0.756,10.614 -6.56,18.508 -14.445,18.508c-9.21,0 -15.013,-9.619 -15.013,-21.626c0,-12.007 5.929,-21.692 15.139,-21.692c6.182,0 10.661,4.245 13.058,10.68l2.523,-0.995c-2.775,-7.364 -8.137,-12.206 -15.581,-12.206c-11.039,0 -17.915,10.813 -17.915,24.213c0,13.4 6.75,24.147 17.789,24.147c9.904,0 17.095,-9.752 17.095,-22.82l0,-0.73Z" style="fill:#fff;fill-rule:nonzero;stroke-width:0.75px;stroke-linecap:butt;stroke:#fff;"/></g></g></g></g></svg>