<?xml version="1.0" standalone="no"?><!DOCTYPE svg PUBLIC "-//W3C//DTD SVG 1.1//EN" "http://www.w3.org/Graphics/SVG/1.1/DTD/svg11.dtd"><svg width="100%" height="100%" viewBox="0 0 76 69" version="1.1" xmlns="http://www.w3.org/2000/svg" xmlns:xlink="http://www.w3.org/1999/xlink" xml:space="preserve" style="fill-rule:evenodd;clip-rule:evenodd;stroke-linejoin:round;stroke-miterlimit:1.41421;"><g><g id="Layer1"><g><path d="M35.203,61.882c-7.623,-8.166 -15.245,-16.332 -22.868,-24.498l-10.363,-11.102c-0.107,0.023 -0.218,0.035 -0.331,0.035c-0.879,0 -1.593,-0.714 -1.593,-1.593c0,-0.879 0.714,-1.593 1.593,-1.593c0.048,0 0.097,0.002 0.144,0.007l8.099,-9.766l5.816,-7.012c-0.223,-0.531 -0.345,-1.114 -0.345,-1.726c0,-2.472 2.006,-4.478 4.478,-4.478c2.135,0 3.924,1.497 4.371,3.499l32.234,0.062c0.292,-0.331 0.719,-0.54 1.195,-0.54c0.879,0 1.593,0.713 1.593,1.592c0,0.069 -0.005,0.137 -0.013,0.204l15.386,18.552c0.686,0.177 1.194,0.801 1.194,1.542c0,0.879 -0.714,1.593 -1.593,1.593c-0.57,0 -1.07,-0.3 -1.352,-0.751l-30.288,3.793c0.098,0.33 0.15,0.679 0.15,1.04c0,1.889 -1.429,3.446 -3.263,3.649l0,25.342c2.281,0.206 4.071,2.125 4.071,4.46c0,2.471 -2.007,4.478 -4.479,4.478c-2.471,0 -4.478,-2.007 -4.478,-4.478c0,-0.845 0.234,-1.636 0.642,-2.311ZM37.209,60.104l-14.554,-31.953c-0.026,0.002 -0.052,0.003 -0.078,0.003c-0.585,0 -1.08,-0.384 -1.249,-0.913l-17.195,-1.827l14.677,15.724l17.932,19.21c0.15,-0.09 0.306,-0.171 0.467,-0.244ZM38.632,59.733l0,-25.342c-1.835,-0.203 -3.264,-1.76 -3.264,-3.649c0,-0.257 0.027,-0.508 0.077,-0.75l-6.114,-1.378l-5.552,-1.25c-0.082,0.19 -0.208,0.357 -0.366,0.488l14.571,31.988c0.21,-0.051 0.427,-0.088 0.648,-0.107ZM22.212,8.428c-0.427,0.269 -0.903,0.467 -1.41,0.579l1.895,16.533c0.566,0.051 1.029,0.464 1.155,1.005l5.658,1.275l6.191,1.394c0.228,-0.496 0.563,-0.933 0.975,-1.28l-14.464,-19.506ZM42.201,16.03c-0.206,0.267 -0.513,0.452 -0.864,0.499l-1.364,10.663c0.962,0.252 1.771,0.886 2.254,1.73l29.625,-3.709l-16.501,-5.111l-13.15,-4.072ZM23.585,7.078c-0.205,0.315 -0.449,0.603 -0.725,0.856l14.495,19.547c0.504,-0.262 1.077,-0.41 1.684,-0.41c0.043,0 0.086,0.001 0.128,0.003l1.368,-10.693c-0.403,-0.221 -0.678,-0.648 -0.682,-1.14l-16.268,-8.163ZM17.046,8.139c-1.05,1.267 -2.101,2.534 -3.152,3.801c-2.397,2.891 -4.795,5.782 -7.193,8.673l-3.243,3.91l17.878,1.9c0.1,-0.294 0.301,-0.541 0.562,-0.699l-1.905,-16.614c-0.053,0.002 -0.106,0.003 -0.16,0.003c-1.053,0 -2.022,-0.365 -2.787,-0.974ZM56.501,5.889l-0.125,0c-4.653,2.988 -9.306,5.977 -13.959,8.965c0.036,0.119 0.055,0.246 0.055,0.377c0,0.01 0,0.02 0,0.03l30.201,9.353l0.002,-0.006l-15.135,-18.249c-0.405,-0.023 -0.77,-0.198 -1.039,-0.47ZM54.873,5.886l-30.722,-0.059c-0.051,0.182 -0.112,0.36 -0.184,0.532l16.139,8.098c0.239,-0.325 0.623,-0.536 1.057,-0.536c0.295,0 0.568,0.098 0.788,0.264l12.922,-8.299Z" style="fill:#fff;"/></g></g></g></svg>