<?xml version="1.0" standalone="no"?>
<!DOCTYPE svg PUBLIC "-//W3C//DTD SVG 1.1//EN" "http://www.w3.org/Graphics/SVG/1.1/DTD/svg11.dtd">
<svg width="100%" height="100%" viewBox="0 0 1168 1179" version="1.1" xmlns="http://www.w3.org/2000/svg" xmlns:xlink="http://www.w3.org/1999/xlink" xml:space="preserve" style="fill-rule:evenodd;clip-rule:evenodd;stroke-linecap:round;stroke-linejoin:round;stroke-miterlimit:1.41421;">
    <g transform="matrix(1,0,0,1,-1791,-591)">
        <g id="Layer1">
            <g transform="matrix(1,0,0,1,2051.71,395.975)">
                <circle cx="324.713" cy="794.404" r="571.257" style="fill:rgb(224,95,84);"/>
            </g>
            <g transform="matrix(1,0,0,1,-28.9474,1.75439)">
                <g transform="matrix(0.853261,0,0,0.852679,393.796,186.676)">
                    <ellipse cx="2694.71" cy="1195.38" rx="40.351" ry="49.123" style="fill:white;"/>
                </g>
                <g transform="matrix(-1.38208,0,0,1.03848,5591.16,-22.6181)">
                    <path d="M2250.84,883.978L2096.89,834.8L2096.89,1483.1L2250.84,1449.13L2250.84,883.978Z" style="fill:white;"/>
                </g>
                <g transform="matrix(-1.38208,0,0,1.03848,5591.16,-22.6181)">
                    <path d="M2250.84,883.978L2096.89,834.8L2096.89,1483.1L2250.84,1449.13L2250.84,883.978Z" style="fill:white;"/>
                </g>
                <g transform="matrix(1.14147,0,0,0.978905,-418.215,48.4353)">
                    <rect x="2250.84" y="883.978" width="284.211" height="565.15" style="fill:none;stroke-width:29.39px;stroke:white;"/>
                </g>
            </g>
        </g>
    </g>
</svg>
