<?xml version="1.0" standalone="no"?>
<!DOCTYPE svg PUBLIC "-//W3C//DTD SVG 1.1//EN" "http://www.w3.org/Graphics/SVG/1.1/DTD/svg11.dtd">
<svg width="100%" height="100%" viewBox="0 0 1153 1179" version="1.1" xmlns="http://www.w3.org/2000/svg" xmlns:xlink="http://www.w3.org/1999/xlink" xml:space="preserve" style="fill-rule:evenodd;clip-rule:evenodd;stroke-linecap:round;stroke-linejoin:round;stroke-miterlimit:1.41421;">
    <g transform="matrix(1,0,0,1,-380,-591)">
        <g id="Layer1">
            <g transform="matrix(1,0,0,1,633.738,388.276)">
                <circle cx="324.713" cy="794.404" r="571.257" style="fill:rgb(224,95,84);"/>
            </g>
            <g transform="matrix(1,0,0,1,-32.7794,0)">
                <g transform="matrix(-1.03846,0,0,1.03846,2024.46,-183.842)">
                    <path d="M1057.68,1237.23C1057.68,1139.04 958.038,1059.33 835.309,1059.33C712.581,1059.33 612.941,1139.04 612.941,1237.23C612.941,1295.25 648.311,1349.62 707.71,1382.92L679.651,1504.07L777.693,1409.05C796.483,1413.08 815.854,1415.12 835.309,1415.12C958.038,1415.12 1057.68,1335.41 1057.68,1237.23Z" style="fill:rgb(224,95,84);stroke-width:30.09px;stroke:white;"/>
                </g>
                <g transform="matrix(1.19822,0,0,1.19822,-139.921,-353.085)">
                    <path d="M1057.68,1237.23C1057.68,1139.04 958.038,1059.33 835.309,1059.33C712.581,1059.33 612.941,1139.04 612.941,1237.23C612.941,1295.25 648.311,1349.62 707.71,1382.92L679.651,1504.07L777.693,1409.05C796.483,1413.08 815.854,1415.12 835.309,1415.12C958.038,1415.12 1057.68,1335.41 1057.68,1237.23Z" style="fill:rgb(224,95,84);stroke-width:26.08px;stroke:white;"/>
                </g>
                <g transform="matrix(1.20395,0,0,1,-191.985,-20.3158)">
                    <path d="M886.888,1053.8C878.728,1052.4 870.435,1052.4 862.275,1053.8L858.621,1069.42C850.872,1071.48 843.476,1075.03 836.738,1079.92L824.62,1071.87C817.995,1077.56 812.13,1084.36 807.217,1092.03L814.166,1106.07C809.945,1113.87 806.882,1122.44 805.102,1131.42L791.619,1135.65C790.409,1145.1 790.409,1154.71 791.619,1164.16L805.102,1168.4C806.882,1177.37 809.945,1185.94 814.166,1193.75L807.217,1207.78C812.13,1215.46 817.995,1222.25 824.62,1227.95L836.738,1219.89C843.476,1224.78 850.872,1228.33 858.621,1230.39L862.275,1246.01C870.435,1247.42 878.728,1247.42 886.888,1246.01L890.542,1230.39C898.291,1228.33 905.687,1224.78 912.425,1219.89L924.542,1227.95C931.168,1222.25 937.032,1215.46 941.946,1207.78L934.997,1193.75C939.217,1185.94 942.281,1177.37 944.061,1168.4L957.543,1164.16C958.754,1154.71 958.754,1145.1 957.543,1135.65L944.061,1131.42C942.281,1122.44 939.217,1113.87 934.997,1106.07L941.946,1092.03C937.032,1084.36 931.168,1077.56 924.542,1071.87L912.425,1079.92C905.687,1075.03 898.291,1071.48 890.542,1069.42L886.888,1053.8ZM874.581,1108.62C894.253,1108.62 910.224,1127.12 910.224,1149.91C910.224,1172.7 894.253,1191.2 874.581,1191.2C854.909,1191.2 838.938,1172.7 838.938,1149.91C838.938,1127.12 854.909,1108.62 874.581,1108.62Z" style="fill:white;"/>
                </g>
            </g>
        </g>
    </g>
</svg>
