<?xml version="1.0" encoding="UTF-8" standalone="no"?><!DOCTYPE svg PUBLIC "-//W3C//DTD SVG 1.1//EN" "http://www.w3.org/Graphics/SVG/1.1/DTD/svg11.dtd"><svg width="100%" height="100%" viewBox="0 0 33 28" version="1.1" xmlns="http://www.w3.org/2000/svg" xmlns:xlink="http://www.w3.org/1999/xlink" xml:space="preserve" style="fill-rule:evenodd;clip-rule:evenodd;stroke-linecap:round;stroke-linejoin:round;stroke-miterlimit:1.5;"><g><clipPath id="_clip1"><rect x="0" y="-82.365" width="307.2" height="63.914"/></clipPath><g clip-path="url(#_clip1)"></g></g><g><path d="M0.212,5.061l12.393,0" style="fill:none;stroke:#f3baba;stroke-width:1.06px;"/><path d="M0,23.888l12.393,0" style="fill:none;stroke:#f3baba;stroke-width:1.06px;"/><path d="M13.827,7.994l13.813,0" style="fill:none;stroke:#f3baba;stroke-width:1.06px;"/><path d="M6.197,18.779l13.812,0" style="fill:none;stroke:#f3baba;stroke-width:1.06px;"/><path d="M22.942,18.779l5.487,0" style="fill:none;stroke:#f3baba;stroke-width:1.06px;"/><path d="M15.246,5.061l1.957,0" style="fill:none;stroke:#f3baba;stroke-width:1.06px;"/><path d="M19.031,5.061l1.956,0" style="fill:none;stroke:#f3baba;stroke-width:1.06px;"/><g><path d="M9.01,8.097l0,3.137" style="fill:none;stroke:#f3baba;stroke-width:1.06px;"/><path d="M10.578,9.665l-3.136,0" style="fill:none;stroke:#f3baba;stroke-width:1.06px;"/></g><g><path d="M26.86,0.949l0,3.137" style="fill:none;stroke:#f3baba;stroke-width:1.06px;"/><path d="M28.429,2.517l-3.137,0" style="fill:none;stroke:#f3baba;stroke-width:1.06px;"/></g><g><path d="M29.89,12.247l0,3.136" style="fill:none;stroke:#f3baba;stroke-width:1.06px;"/><path d="M31.458,13.815l-3.136,0" style="fill:none;stroke:#f3baba;stroke-width:1.06px;"/></g><g><path d="M16.815,22.688l0,3.136" style="fill:none;stroke:#f3baba;stroke-width:1.06px;"/><path d="M18.383,24.256l-3.137,0" style="fill:none;stroke:#f3baba;stroke-width:1.06px;"/></g></g></svg>